<svg width="100%" height="auto" viewBox="0 0 805 579" fill="none" xmlns="http://www.w3.org/2000/svg">
  <g id="slide1">
  <path id="background1" d="M645.843 30.6531C676.111 47.7033 694.386 81.8036 709.806 114.54C725.035 147.276 737.6 178.649 742.359 212.237C746.928 245.997 743.882 281.973 719.134 300.557C694.577 318.971 648.699 319.824 613.671 333.294C578.834 346.763 555.039 373.021 496.977 426.047C438.915 479.243 346.588 559.379 280.721 561.936C214.664 564.494 175.068 489.473 126.144 417.862C77.0295 346.252 18.5871 278.051 26.7729 214.113C35.149 150.175 110.153 90.4992 191.249 68.8455C272.535 47.1918 359.913 63.56 417.785 60.6614C475.466 57.9334 503.259 35.7682 538.286 24.6856C573.504 13.603 615.575 13.603 645.843 30.6531Z" fill="#F2C30D"/>
  <g id="screen">
  <path id="Vector" d="M580.601 93.762H194.074C179.926 93.762 168.456 105.323 168.456 119.583V366.249C168.456 380.51 179.926 392.071 194.074 392.071H580.601C594.751 392.071 606.22 380.51 606.22 366.249V119.583C606.22 105.323 594.751 93.762 580.601 93.762Z" fill="url(#paint0_linear_7_1145)"/>
  <path id="Vector_2" d="M197.751 93.762H577.547C585.235 93.762 592.608 96.8399 598.041 102.318C603.479 107.796 606.533 115.227 606.533 122.974H168.77C168.77 115.227 171.823 107.796 177.258 102.318C182.693 96.8399 190.065 93.762 197.751 93.762Z" fill="#2651F0"/>
  <path id="Vector_3" d="M399.216 141.516H578.015C581.08 141.516 584.027 142.744 586.193 144.93C588.365 147.117 589.584 150.082 589.584 153.174V242.259C589.584 245.35 588.365 248.316 586.193 250.502C584.027 252.689 581.08 253.917 578.015 253.917H399.216C396.149 253.917 393.207 252.689 391.038 250.502C388.869 248.316 387.65 245.35 387.65 242.259V153.174C387.65 151.643 387.949 150.127 388.53 148.712C389.112 147.298 389.964 146.013 391.038 144.931C392.112 143.848 393.387 142.989 394.79 142.403C396.193 141.817 397.698 141.516 399.216 141.516Z" stroke="#5661AE" stroke-miterlimit="10" stroke-dasharray="11.93 11.93"/>
  <path id="Vector_4" d="M530.023 270.394H351.224C344.836 270.394 339.658 275.614 339.658 282.053V371.138C339.658 377.576 344.836 382.795 351.224 382.795H530.023C536.41 382.795 541.589 377.576 541.589 371.138V282.053C541.589 275.614 536.41 270.394 530.023 270.394Z" fill="white"/>
  <path id="Vector_5" d="M317.992 270.394H193.054C187.65 270.394 183.27 274.81 183.27 280.257V372.934C183.27 378.38 187.65 382.795 193.054 382.795H317.992C323.396 382.795 327.777 378.38 327.777 372.934V280.257C327.777 274.81 323.396 270.394 317.992 270.394Z" fill="white"/>
  <path id="Vector_6" d="M356.112 352.135C356.112 352.135 369.513 350.713 377.57 356.793C388.377 364.946 397.08 371.24 408.569 351.2C421.154 329.244 423.133 321.575 432.314 321.484C444.099 321.369 448.7 353.031 470.43 355.268C492.159 357.505 506.934 353.925 506.934 353.925" stroke="#5661AE" stroke-width="10" stroke-miterlimit="10" stroke-linecap="round"/>
  <path id="Vector_7" d="M356.112 288.944H387.337" stroke="#5661AE" stroke-width="16" stroke-miterlimit="10" stroke-linecap="round"/>
  <path id="Vector_8" d="M356.112 303.633H420.642" stroke="#D4DCF4" stroke-width="16" stroke-miterlimit="10" stroke-linecap="round"/>
  <path id="Vector_9" d="M195.253 114.975C197.989 114.975 200.206 112.74 200.206 109.983C200.206 107.227 197.989 104.991 195.253 104.991C192.519 104.991 190.301 107.227 190.301 109.983C190.301 112.74 192.519 114.975 195.253 114.975Z" fill="white"/>
  <path id="Vector_10" d="M212.037 114.975C214.772 114.975 216.989 112.74 216.989 109.983C216.989 107.227 214.772 104.991 212.037 104.991C209.302 104.991 207.085 107.227 207.085 109.983C207.085 112.74 209.302 114.975 212.037 114.975Z" fill="white"/>
  <path id="Vector_11" d="M228.341 114.975C231.076 114.975 233.293 112.74 233.293 109.983C233.293 107.227 231.076 104.991 228.341 104.991C225.606 104.991 223.388 107.227 223.388 109.983C223.388 112.74 225.606 114.975 228.341 114.975Z" fill="white"/>
  <path id="Vector_12" d="M488.902 217.914C499.969 217.914 508.941 208.871 508.941 197.716C508.941 186.561 499.969 177.518 488.902 177.518C477.834 177.518 468.862 186.561 468.862 197.716C468.862 208.871 477.834 217.914 488.902 217.914Z" fill="#2651F0"/>
  <path id="Vector_13" d="M490.484 188.174C490.484 187.293 489.776 186.579 488.902 186.579C488.029 186.579 487.32 187.293 487.32 188.174V208.541C487.32 209.421 488.029 210.135 488.902 210.135C489.776 210.135 490.484 209.421 490.484 208.541V188.174Z" fill="white"/>
  <path id="Vector_14" d="M499.005 199.951C499.879 199.951 500.587 199.237 500.587 198.357C500.587 197.476 499.879 196.762 499.005 196.762H478.799C477.925 196.762 477.217 197.476 477.217 198.357C477.217 199.237 477.925 199.951 478.799 199.951H499.005Z" fill="white"/>
  </g>
  <path id="arm-back" d="M250.126 266.35L262.305 242.18C262.305 242.18 254.89 243.157 253.599 238.518C252.306 233.879 288.639 229.729 288.639 229.729C288.639 229.729 285.732 239.983 281.372 241.204L269.382 276.604L250.126 266.35Z" fill="#BC775C"/>
  <g id="graphic" class="animation-rotate">
  <path id="Vector_15" d="M353.624 140.877L178.333 168.702C175.325 169.179 173.27 172.024 173.745 175.056L184.756 245.533C185.23 248.565 188.052 250.636 191.06 250.158L366.351 222.333C369.359 221.856 371.413 219.011 370.939 215.979L359.928 145.502C359.454 142.47 356.632 140.399 353.624 140.877Z" fill="#FEBB94"/>
  <path id="Vector_16" d="M263.872 184.476L335.112 173.167" stroke="white" stroke-width="16.5208" stroke-miterlimit="10" stroke-linecap="round"/>
  <path id="Vector_17" opacity="0.7" d="M268.797 206.288L315.269 198.911" stroke="white" stroke-width="16.5208" stroke-miterlimit="10" stroke-linecap="round"/>
  <path id="Vector_18" d="M221.041 232.257C234.942 232.342 246.28 221.052 246.364 207.041C246.448 193.029 235.247 181.601 221.346 181.516C207.445 181.431 196.107 192.721 196.023 206.733C195.939 220.745 207.14 232.172 221.041 232.257Z" stroke="#EF6A77" stroke-width="16.5208" stroke-miterlimit="10"/>
  <path id="Vector_19" d="M246.058 202.94C246.833 207.897 246.132 212.973 244.043 217.529C241.955 222.084 238.574 225.913 234.327 228.531C230.08 231.149 225.158 232.439 220.184 232.238C215.209 232.036 210.406 230.353 206.381 227.399C202.356 224.446 199.29 220.357 197.571 215.647C195.852 210.938 195.557 205.821 196.723 200.943C197.89 196.064 200.465 191.644 204.124 188.241C207.783 184.838 212.36 182.606 217.278 181.825" stroke="white" stroke-width="16.5208" stroke-miterlimit="10" stroke-linecap="round"/>
  </g>
  <g id="illustration1">
  <path id="Vector_20" d="M384.785 508.347C558.699 508.347 699.681 504.717 699.681 500.239C699.681 495.76 558.699 492.13 384.785 492.13C210.875 492.13 69.8916 495.76 69.8916 500.239C69.8916 504.717 210.875 508.347 384.785 508.347Z" fill="#F5F8FF"/>
  <path id="Vector_21" d="M660.954 340.986H440.623V497.871H660.954V340.986Z" fill="#5CA4E6"/>
  <path id="Vector_22" d="M528.642 340.986H440.623V497.871H528.642V340.986Z" fill="url(#paint1_linear_7_1145)"/>
  <path id="Vector_23" d="M123.846 438.904L114.804 497.431L111.361 496.891C110.2 496.708 109.157 496.068 108.464 495.111C107.77 494.155 107.482 492.959 107.663 491.788L115.341 442.091C115.522 440.92 116.157 439.87 117.106 439.171C118.056 438.472 119.242 438.181 120.403 438.364L123.846 438.904Z" fill="#5661AE"/>
  <path id="Vector_24" d="M152.105 448.754L137.967 444.49L133.473 464.344L148.94 469.239L152.105 448.754Z" fill="#BC775C"/>
  <path id="Vector_25" d="M142.377 467.162L139.763 466.335L146.185 446.969L148.572 447.689L142.377 467.162Z" fill="#93523E"/>
  <path id="Vector_26" d="M139.76 444.772C139.76 444.772 134.221 454.473 137.273 465.547L118.243 496.904C116.589 498.122 114.076 497.4 112.679 496.65C112.374 496.485 112.127 496.227 111.974 495.913C111.82 495.6 111.767 495.246 111.822 494.9L120.03 441.774C120.166 440.887 120.643 440.089 121.356 439.553C122.069 439.016 122.963 438.784 123.845 438.904C127.375 439.387 132.746 440.166 134.859 440.713C138.125 441.558 139.847 442.755 139.76 444.772Z" fill="#1C85E8"/>
  <path id="Vector_27" d="M133.479 472.207L130.685 467.716C130.583 467.552 130.443 467.415 130.276 467.319C130.109 467.223 129.922 467.169 129.73 467.162C129.538 467.156 129.347 467.198 129.175 467.283C129.003 467.369 128.854 467.496 128.741 467.653C128.604 467.845 128.527 468.075 128.52 468.312C128.514 468.55 128.58 468.783 128.707 468.983L132.195 474.44L133.479 472.207Z" fill="white"/>
  <path id="Vector_28" d="M130.312 477.018L127.545 472.537C127.443 472.373 127.302 472.237 127.136 472.141C126.969 472.044 126.782 471.99 126.59 471.984C126.398 471.978 126.207 472.019 126.035 472.105C125.863 472.19 125.713 472.317 125.602 472.474C125.464 472.667 125.387 472.896 125.381 473.134C125.374 473.371 125.439 473.605 125.567 473.804L128.981 479.211L130.312 477.018Z" fill="white"/>
  <path id="Vector_29" d="M127.029 482.427L124.314 477.979C124.212 477.815 124.071 477.679 123.905 477.582C123.738 477.485 123.55 477.432 123.358 477.426C123.167 477.419 122.976 477.461 122.803 477.546C122.631 477.631 122.483 477.759 122.37 477.915C122.232 478.108 122.155 478.338 122.149 478.575C122.143 478.813 122.208 479.046 122.336 479.246L125.734 484.563L127.029 482.427Z" fill="white"/>
  <path id="Vector_30" d="M279.273 489.891H338.039V493.402C338.039 493.989 337.924 494.57 337.702 495.112C337.479 495.654 337.152 496.147 336.74 496.561C336.329 496.976 335.84 497.306 335.302 497.53C334.765 497.755 334.189 497.87 333.606 497.87H283.706C282.531 497.87 281.403 497.399 280.572 496.561C279.74 495.724 279.273 494.587 279.273 493.402V489.891Z" fill="#5661AE"/>
  <path id="Vector_31" d="M284.581 460.23L282.576 474.966L302.731 476.388L305.149 460.23H284.581Z" fill="#BC775C"/>
  <path id="Vector_32" d="M304.94 461.625L304.424 465.074L283.728 466.503L284.391 461.625H304.94Z" fill="#93523E"/>
  <path id="Vector_33" d="M282.576 473.137C282.576 473.137 292.939 477.162 303.325 472.418L336.993 486.545C338.441 488.005 338.12 490.619 337.6 492.125C337.484 492.455 337.27 492.74 336.986 492.942C336.702 493.143 336.364 493.25 336.016 493.249H282.673C281.783 493.249 280.928 492.898 280.292 492.27C279.656 491.642 279.291 490.788 279.273 489.89C279.203 486.301 279.141 480.831 279.352 478.643C279.678 475.26 280.586 473.361 282.576 473.137Z" fill="#1C85E8"/>
  <path id="Vector_34" d="M310.438 475.172L306.465 478.646C306.32 478.773 306.208 478.934 306.139 479.115C306.07 479.295 306.046 479.49 306.07 479.682C306.093 479.874 306.163 480.058 306.274 480.216C306.384 480.375 306.531 480.504 306.702 480.592C306.912 480.699 307.149 480.74 307.383 480.71C307.616 480.68 307.835 480.579 308.012 480.421L312.825 476.108L310.438 475.172Z" fill="white"/>
  <path id="Vector_35" d="M315.642 477.586L311.675 481.031C311.529 481.158 311.417 481.319 311.349 481.5C311.279 481.68 311.256 481.875 311.279 482.067C311.302 482.259 311.373 482.443 311.483 482.601C311.593 482.76 311.74 482.889 311.912 482.976C312.122 483.084 312.359 483.125 312.593 483.095C312.826 483.064 313.045 482.964 313.221 482.806L317.996 478.574L315.642 477.586Z" fill="white"/>
  <path id="Vector_36" d="M321.449 480.023L317.505 483.413C317.36 483.539 317.248 483.7 317.18 483.881C317.11 484.062 317.087 484.257 317.11 484.449C317.134 484.641 317.203 484.825 317.314 484.983C317.424 485.141 317.571 485.27 317.742 485.358C317.953 485.465 318.19 485.506 318.424 485.476C318.657 485.446 318.876 485.345 319.052 485.187L323.741 480.985L321.449 480.023Z" fill="white"/>
  <path id="Vector_37" d="M251.781 263.5L270.805 272.685L269.223 277.354L250.736 265.575L251.781 263.5Z" fill="#93523E"/>
  <path id="Vector_38" d="M243.944 394.552L251.208 477.425C251.208 495.19 233.225 497.211 227.468 495.117C219.348 492.164 140.702 471.983 140.702 471.983L149.036 446.253L209.398 454.71C209.398 454.71 207.747 437.444 191.561 384.723L243.944 394.552Z" fill="#5661AE"/>
  <path id="Vector_39" d="M196.955 402.984L245.897 416.836L243.146 383.558L191.562 384.723L196.955 402.984Z" fill="#465393"/>
  <path id="Vector_40" d="M243.234 212.983C243.234 212.983 252.926 224.073 255.807 228.561C258.689 233.05 258.792 241.854 252.767 244.098C246.743 246.342 241.814 246.719 233.017 245.063C226.173 243.775 217.3 232.39 219.92 226.581C222.539 220.772 234.72 210.211 243.234 212.983Z" fill="#BC775C"/>
  <path id="Vector_41" d="M245.068 244.007L243.627 262.754L222.54 258.133L231.97 240.443L245.068 244.007Z" fill="#BC775C"/>
  <path id="Vector_42" d="M245.067 245.958H239.334L244.239 254.785" fill="#93523E"/>
  <path id="Vector_43" d="M220.183 256.945L223.327 253.874C223.736 253.475 224.237 253.187 224.785 253.035C225.333 252.883 225.91 252.872 226.463 253.005L243.706 257.12C244.122 257.219 244.504 257.426 244.817 257.718C245.13 258.011 245.362 258.38 245.491 258.79L246.737 262.754L220.183 256.945Z" fill="url(#paint2_linear_7_1145)"/>
  <path id="Vector_44" d="M192.872 351.726L189.785 366.799C186.31 389.792 202.665 405.002 227.662 400.857C249.985 397.155 316.111 371.313 316.111 371.313L313.476 330.415L257.885 339.659C257.885 339.659 207.918 330.328 192.872 351.726Z" fill="#5661AE"/>
  <path id="Vector_45" d="M317.617 366.181C327.549 366.181 335.6 358.066 335.6 348.055C335.6 338.044 327.549 329.929 317.617 329.929C307.686 329.929 299.634 338.044 299.634 348.055C299.634 358.066 307.686 366.181 317.617 366.181Z" fill="#5661AE"/>
  <path id="Vector_46" d="M317.617 366.181C327.549 366.181 335.6 358.066 335.6 348.055C335.6 338.044 327.549 329.929 317.617 329.929C307.686 329.929 299.634 338.044 299.634 348.055C299.634 358.066 307.686 366.181 317.617 366.181Z" fill="#5661AE"/>
  <path id="Vector_47" d="M233.226 496.071C243.158 496.071 251.209 487.956 251.209 477.946C251.209 467.935 243.158 459.82 233.226 459.82C223.294 459.82 215.243 467.935 215.243 477.946C215.243 487.956 223.294 496.071 233.226 496.071Z" fill="#5661AE"/>
  <path id="Vector_48" d="M334.723 353.293L309.443 461.626H279.208L299.634 348.056L334.723 353.293Z" fill="#5661AE"/>
  <path id="Vector_49" d="M257.885 339.66L191.301 360.546L192.871 351.726L257.885 339.66Z" fill="#465393"/>
  <path id="Vector_50" d="M272.826 278.463L279.442 283.314L301.533 246.766C301.533 246.766 298.591 234.795 298.389 232.757L305.577 231.724C305.577 231.724 311.398 220.664 313.058 218.476C314.718 216.289 316.633 216.675 317.654 218.476C317.654 218.476 320.846 218.991 321.356 223.366C321.356 223.366 324.165 224.01 325.314 229.671C325.314 229.671 327.74 232.245 327.229 235.076C326.718 237.907 320.335 249.002 319.314 250.146C318.527 251.079 317.802 252.062 317.143 253.091L295.867 304.48C295.867 304.48 290.668 315.721 278.484 311.457L263.379 304.402C256.446 299.874 272.826 278.463 272.826 278.463Z" fill="#BC775C"/>
  <path id="Vector_51" d="M283.962 312.786C290.984 312.786 296.678 307.047 296.678 299.969C296.678 292.889 290.984 287.151 283.962 287.151C276.938 287.151 271.245 292.889 271.245 299.969C271.245 307.047 276.938 312.786 283.962 312.786Z" fill="#BC775C"/>
  <path id="Vector_52" d="M230.66 222.224C230.66 222.224 243.103 218 245.591 209.155C248.08 200.309 242.841 195.689 236.03 200.177C236.03 200.177 231.184 192.388 222.932 197.801C214.681 203.214 216.253 216.02 216.515 218.528C216.515 218.528 207.216 225.129 211.669 235.558C216.122 245.987 228.341 248.496 228.341 248.496C229.69 246.542 230.655 244.346 231.184 242.027C231.184 242.027 224.45 236.878 228.341 231.862C232.232 226.845 236.685 234.898 236.685 234.898C236.685 234.898 240.091 223.544 230.66 222.224Z" fill="#465393"/>
  <path id="Vector_53" d="M220.182 256.945C220.182 256.945 211.543 261.274 209.587 265.936C207.778 270.244 195.202 326.826 191.35 349.603C191.258 350.144 191.299 350.698 191.47 351.219C191.64 351.739 191.936 352.209 192.328 352.588C192.721 352.967 193.201 353.242 193.725 353.39C194.248 353.539 194.799 353.555 195.331 353.438L257.885 339.659C257.885 339.659 254.825 306.522 255.897 296.796C256.969 287.071 246.736 262.753 246.736 262.753L220.182 256.945Z" fill="url(#paint3_linear_7_1145)"/>
  <path id="Vector_54" d="M255.676 301.382L239.906 291.935L256.316 319.144L255.676 301.382Z" fill="#96BAFD"/>
  <path id="Vector_55" d="M279.442 283.314L284.035 286.54L288.48 268.363L279.442 283.314Z" fill="#93523E"/>
  <path id="Vector_56" d="M246.737 262.754C246.737 262.754 271.838 276.585 274.885 278.852C275.281 279.146 275.558 279.573 275.669 280.055C275.779 280.537 275.716 281.043 275.488 281.482L263.96 303.793C263.831 304.043 263.652 304.265 263.434 304.443C263.217 304.621 262.966 304.754 262.697 304.831C262.427 304.908 262.145 304.929 261.866 304.893C261.589 304.856 261.321 304.763 261.08 304.618L231.823 287.094C231.823 287.094 230.267 263.766 246.737 262.754Z" fill="url(#paint4_linear_7_1145)"/>
  <path id="Vector_57" d="M243.534 229.618C244.135 229.166 244.067 228.049 243.382 227.123C242.696 226.198 241.653 225.815 241.051 226.267C240.449 226.72 240.518 227.837 241.203 228.762C241.889 229.688 242.932 230.071 243.534 229.618Z" fill="#080B09"/>
  <path id="Vector_58" d="M251.782 223.327C252.384 222.875 252.316 221.757 251.63 220.832C250.944 219.907 249.901 219.524 249.3 219.976C248.698 220.429 248.767 221.546 249.452 222.471C250.137 223.397 251.181 223.78 251.782 223.327Z" fill="#080B09"/>
  <path id="Vector_59" d="M248.443 225.051C248.443 225.051 248.3 227.787 249.964 227.067C251.529 226.323 252.867 226.835 251.886 228.912" stroke="#93523E" stroke-width="1.20877" stroke-linecap="round" stroke-linejoin="round"/>
  <path id="Vector_60" d="M252.436 230.865C251.491 231.384 249.602 232.419 248.355 233.13C248.279 233.172 248.217 233.233 248.174 233.308C248.132 233.384 248.11 233.47 248.112 233.556C248.114 233.643 248.14 233.727 248.186 233.801C248.232 233.873 248.298 233.932 248.375 233.971C250.123 234.732 253.868 235.84 253.082 231.221C253.082 231.145 253.061 231.071 253.023 231.006C252.984 230.941 252.929 230.888 252.863 230.852C252.797 230.816 252.723 230.798 252.647 230.8C252.572 230.803 252.5 230.825 252.436 230.865Z" fill="white"/>
  <path id="Vector_61" d="M236.44 226.883L236.615 227.027C236.853 227.26 237.172 227.389 237.502 227.385C237.833 227.382 238.15 227.246 238.382 227.009L242.27 222.82C242.466 222.625 242.583 222.363 242.597 222.085C242.61 221.807 242.52 221.535 242.344 221.321C242.242 221.185 242.113 221.073 241.965 220.991C241.817 220.909 241.653 220.86 241.485 220.846C241.316 220.833 241.147 220.855 240.987 220.913C240.828 220.971 240.683 221.061 240.561 221.179L236.498 225.224C236.384 225.328 236.292 225.454 236.227 225.594C236.161 225.734 236.125 225.886 236.12 226.041C236.114 226.196 236.14 226.35 236.195 226.495C236.25 226.64 236.333 226.771 236.44 226.883Z" fill="#080B09"/>
  <path id="Vector_62" d="M250.571 214.996L245.224 217.018C245.066 217.08 244.924 217.175 244.805 217.296C244.687 217.418 244.595 217.563 244.537 217.723C244.478 217.883 244.454 218.053 244.466 218.223C244.478 218.393 244.525 218.559 244.605 218.709C244.723 218.959 244.931 219.156 245.187 219.26C245.442 219.364 245.728 219.367 245.986 219.269L251.389 217.468C251.7 217.355 251.954 217.122 252.096 216.82C252.238 216.519 252.256 216.173 252.146 215.859L252.089 215.638C252.034 215.493 251.95 215.362 251.842 215.251C251.735 215.14 251.607 215.052 251.466 214.992C251.323 214.932 251.171 214.902 251.018 214.902C250.864 214.903 250.712 214.935 250.571 214.996Z" fill="#080B09"/>
  <path id="Vector_63" d="M660.954 122.974L614.735 159.204H704.179L660.954 122.974Z" fill="#D4DCF4"/>
  <path id="Vector_64" d="M514.617 309.038C514.617 309.038 497.668 294.125 483.888 306.799C470.108 319.471 413.174 406.496 413.174 406.496L430.394 418.499L494.976 345.293L506.218 363.531L514.617 309.038Z" fill="#FCBA9F"/>
  <path id="Vector_65" fill-rule="evenodd" clip-rule="evenodd" d="M503.086 475.554C510.185 470.325 517.502 464.935 525.208 463.195C525.381 463.155 525.561 463.153 525.736 463.19C525.91 463.227 526.074 463.303 526.216 463.41C526.359 463.517 526.477 463.654 526.561 463.813C526.646 463.971 526.696 464.145 526.706 464.324L527.551 478.734C527.568 479.031 527.479 479.324 527.298 479.559C527.118 479.794 526.859 479.955 526.57 480.013L473.784 490.529C469.892 491.304 467.395 489.598 466.198 486.569C466.159 486.464 466.151 486.35 466.174 486.241C466.197 486.132 466.251 486.032 466.33 485.953C466.408 485.874 466.508 485.819 466.616 485.796C466.724 485.772 466.837 485.78 466.941 485.819C473.875 488.387 481.53 488.118 488.27 485.069C493.139 482.881 498.057 479.257 503.086 475.554Z" fill="#5661AE"/>
  <path id="Vector_66" fill-rule="evenodd" clip-rule="evenodd" d="M519.284 428.344C519.284 428.344 520.284 451.087 520.811 453.401C521.173 454.665 521.627 455.901 522.169 457.098C523.074 459.272 524.082 461.694 524.174 463.454C516.847 465.422 509.867 470.562 503.086 475.556C498.057 479.259 493.14 482.88 488.27 485.068C481.856 487.97 474.599 488.36 467.915 486.163C466.997 482.232 469.662 477.88 476.382 475.919C488.429 472.405 495.012 470.178 499.213 460.022C502.198 452.805 497.198 427.68 497.198 427.68L519.284 428.344Z" fill="#FFCCB3"/>
  <path id="Vector_67" fill-rule="evenodd" clip-rule="evenodd" d="M499.741 456.183C502.11 456.036 511.521 455.411 520.532 454.224C522.283 453.994 523.846 457.308 523.098 459.417C522.609 460.956 522.243 462.534 522.005 464.133C519.065 465.216 516.244 466.603 513.587 468.271C514.132 464.514 511.859 462.85 508.481 463.021C505.812 463.157 499.785 464.865 496.678 465.793C496.507 465.843 496.325 465.843 496.154 465.794C495.983 465.744 495.83 465.645 495.712 465.511C495.595 465.376 495.518 465.21 495.492 465.032C495.465 464.855 495.489 464.674 495.561 464.51L498.945 456.744C499.013 456.585 499.124 456.449 499.264 456.35C499.405 456.251 499.57 456.193 499.741 456.183Z" fill="white"/>
  <path id="Vector_68" fill-rule="evenodd" clip-rule="evenodd" d="M474.816 487.505C480.948 487.988 484.658 486.381 484.658 486.381L482.19 473.798L472.595 476.178L474.816 487.505Z" fill="white"/>
  <path id="Vector_69" fill-rule="evenodd" clip-rule="evenodd" d="M397.921 430.125C406.689 430.783 415.726 431.463 422.713 435.174C422.871 435.257 423.008 435.373 423.117 435.515C423.226 435.657 423.303 435.821 423.342 435.997C423.382 436.172 423.383 436.353 423.346 436.528C423.309 436.704 423.234 436.869 423.127 437.013L414.5 448.535C414.323 448.772 414.066 448.937 413.777 448.998C413.489 449.059 413.188 449.013 412.931 448.867L365.98 422.375C362.518 420.422 361.715 417.491 362.752 414.403C362.79 414.298 362.857 414.206 362.945 414.138C363.033 414.07 363.138 414.029 363.249 414.02C363.36 414.011 363.47 414.034 363.568 414.087C363.665 414.14 363.746 414.22 363.8 414.318C367.427 420.804 373.428 425.602 380.52 427.685C385.635 429.202 391.71 429.659 397.921 430.125Z" fill="#5661AE"/>
  <path id="Vector_70" fill-rule="evenodd" clip-rule="evenodd" d="M440.623 404.77L425.666 424.844C425.129 426.043 424.68 427.281 424.322 428.547C423.613 430.794 422.822 433.296 421.76 434.696C414.916 431.406 406.295 430.757 397.92 430.127C391.71 429.66 385.636 429.203 380.522 427.686C373.772 425.703 367.997 421.257 364.321 415.217C366.151 411.624 370.98 410.052 377.357 412.952C388.789 418.15 395.233 420.756 404.964 415.77C406.532 414.839 407.937 413.655 409.123 412.264L424.235 389.831L440.623 404.77Z" fill="#FCBA9F"/>
  <path id="Vector_71" fill-rule="evenodd" clip-rule="evenodd" d="M407.835 413.192C409.733 414.628 417.3 420.303 424.924 425.288C426.405 426.257 425.462 429.802 423.536 430.919C422.174 431.771 420.88 432.732 419.671 433.795C416.736 432.698 413.696 431.91 410.601 431.444C413.432 428.94 412.772 426.187 410.089 424.11C407.971 422.469 402.283 419.83 399.321 418.505C399.158 418.433 399.02 418.314 398.922 418.164C398.824 418.014 398.771 417.84 398.768 417.66C398.765 417.481 398.814 417.304 398.907 417.151C399.001 416.999 399.136 416.876 399.297 416.799L406.868 413.098C407.022 413.022 407.194 412.991 407.365 413.008C407.535 413.024 407.698 413.088 407.835 413.192Z" fill="white"/>
  <path id="Vector_72" fill-rule="evenodd" clip-rule="evenodd" d="M368.712 420.748C373.069 425.123 376.927 426.324 376.927 426.324L383.143 415.132L374.307 410.673L368.712 420.748Z" fill="white"/>
  <path id="Vector_73" d="M537.86 298.218L493.17 306.221L501.966 341.877H530.592C530.592 341.877 544.2 312.397 537.86 298.218Z" fill="#FFCCB3"/>
  <path id="Vector_74" d="M498.898 341.528C508.829 341.528 516.881 333.413 516.881 323.402C516.881 313.392 508.829 305.277 498.898 305.277C488.966 305.277 480.915 313.392 480.915 323.402C480.915 333.413 488.966 341.528 498.898 341.528Z" fill="#FFCCB3"/>
  <path id="Vector_75" d="M481.138 326.259L499.132 439.826L519.888 440.699L517.464 328.438L481.138 326.259Z" fill="#FFCCB3"/>
  <path id="Vector_76" d="M509.328 301.342C509.328 301.342 516.215 303.48 519.058 314.803C521.901 326.125 518.799 341.877 518.799 341.877H523.228C523.228 341.877 539.019 323.186 527.401 299.364L509.328 301.342Z" fill="#FF967C"/>
  <path id="Vector_77" d="M552.78 204.224L547.155 206.944C544.998 207.987 543.096 209.498 541.585 211.367C540.075 213.237 538.992 215.42 538.415 217.76L525.699 269.33L497.031 283.146L503.567 293.609L557.77 291.672L552.78 204.224Z" fill="#5661AE"/>
  <path id="Vector_78" d="M544.679 222.789C544.679 222.789 534.809 236.766 539.585 250.079C544.361 263.392 542.411 265.86 541.216 277.654C540.022 289.448 543.923 286.706 543.923 286.706L557.769 280.123C557.769 280.123 563.545 224.333 544.679 222.789Z" fill="#465393"/>
  <path id="Vector_79" d="M602.752 286.983C602.752 286.983 608.226 313.978 601.053 325.258C591.975 339.537 580.873 341.724 572.665 341.877H518.799C518.799 341.877 518.699 308.004 492.162 302.217C492.162 302.217 579.5 277.7 602.752 286.983Z" fill="#1F2D49"/>
  <path id="Vector_80" d="M603.959 294.843L546.872 296.737L547.479 292.718L558.604 291.422H603.876L603.959 294.843Z" fill="#0D1B33"/>
  <path id="Vector_81" d="M530.125 282.194C530.125 282.194 523.141 284.24 520.004 285.17C516.867 286.1 510.664 288.333 510.664 288.333L515.206 294.843L535.79 293.609L530.125 282.194Z" fill="#FFCCB3"/>
  <path id="Vector_82" d="M563.965 199.41C563.965 199.41 552.245 204.085 550.455 205.528C548.665 206.971 546.966 218.75 543.923 224.342C540.88 229.935 536.429 240.257 542.93 249.739C549.432 259.22 548.74 266.749 548.74 266.749L547.357 290.534L601.592 292.197C602.083 292.212 602.574 292.122 603.03 291.932C603.485 291.742 603.9 291.457 604.237 291.095C604.574 290.733 604.835 290.302 604.994 289.832C605.154 289.362 605.213 288.863 605.172 288.367C604.55 281.433 603.503 271.073 603.278 260.03C602.976 245.066 602.751 195.062 602.751 195.062L578.34 194.291C573.428 195.145 563.965 199.41 563.965 199.41Z" fill="#5661AE"/>
  <path id="Vector_83" d="M602.751 221.611C610.024 221.611 615.919 215.668 615.919 208.337C615.919 201.006 610.024 195.063 602.751 195.063C595.478 195.063 589.584 201.006 589.584 208.337C589.584 215.668 595.478 221.611 602.751 221.611Z" fill="#5661AE"/>
  <path id="Vector_84" d="M604.527 282.884C604.527 282.884 603.403 287.033 591.36 291.883C591.36 291.883 563.125 291.265 549.098 291.562C535.071 291.86 550.602 288.13 558.433 284.195C566.262 280.26 603.639 269.33 603.639 269.33L604.527 282.884Z" fill="#465393"/>
  <path id="Vector_85" d="M593.147 215.503C593.147 215.503 584.98 223.007 584.501 228.575C584.015 234.142 582.909 249.667 572.416 251.215C559.551 253.113 556.183 254.961 562.149 256.414C568.108 257.866 581.642 255.512 581.642 261.739C581.642 266.17 586.897 269.485 589.543 267.064C592.182 264.644 613.226 227.849 593.147 215.503Z" fill="#465393"/>
  <path id="Vector_86" d="M615.777 210.279C614.67 215.605 604.137 271.723 604.137 271.723C604.137 271.723 602.752 280.118 594.615 282.194L537.86 296.737L527.873 281.638L579.346 263.895L589.584 208.337C589.584 208.337 617.257 203.173 615.777 210.279Z" fill="#5661AE"/>
  <path id="Vector_87" d="M562.646 189.075L563.185 207.491C563.185 207.491 563.042 210.668 566.865 210.239C570.694 209.811 578.394 206.928 580.518 203.215C582.643 199.501 581.299 198.227 581.299 198.227L569.623 175.286L562.646 189.075Z" fill="#FFCCB3"/>
  <path id="Vector_88" d="M562.646 191.215L567.428 185.501L563.054 203.08L562.646 191.215Z" fill="#FF967C"/>
  <path id="Vector_89" d="M566.906 143.682C566.699 140.168 567.457 136.665 569.102 133.559C571.824 128.604 577.47 121.75 586.051 124.703C594.626 127.655 600.905 134.298 597.662 143.682C594.419 153.066 585.412 156.069 580.82 155.069C576.227 154.07 566.906 143.682 566.906 143.682Z" fill="#080B09"/>
  <path id="Vector_90" d="M564.144 144.987C564.641 144.147 565.374 143.482 566.262 143.082C567.144 142.683 568.126 142.568 569.079 142.755C572.476 143.385 576.045 146.086 579.086 149.327C582.122 152.568 582.022 154.921 580.643 156.356C579.264 157.791 564.144 144.987 564.144 144.987Z" fill="#FEBB94"/>
  <path id="Vector_91" d="M488.902 238.945L510.664 299.715H554.42C554.42 297.86 553.686 296.08 552.387 294.768C551.085 293.456 549.32 292.719 547.478 292.719H515.823L497.031 238.945H488.902Z" fill="white"/>
  <path id="Vector_92" d="M488.902 238.945H430.195L452.899 299.715H510.665L488.902 238.945Z" fill="#D4DCF4"/>
  <path id="Vector_93" d="M470.429 276.504C473.353 276.504 475.724 274.115 475.724 271.167C475.724 268.221 473.353 265.831 470.429 265.831C467.505 265.831 465.135 268.221 465.135 271.167C465.135 274.115 467.505 276.504 470.429 276.504Z" fill="white"/>
  <path id="Vector_94" d="M538.883 166.431C538.883 166.431 540.694 184.057 549.202 192.083C554.752 197.317 559.841 195.977 567.428 185.502C574.381 175.897 574.991 171.226 574.991 171.226L567.641 154.553C567.641 154.553 538.019 150.304 538.883 166.431Z" fill="#FFCCB3"/>
  <path id="Vector_95" d="M541.895 162.98C541.895 162.98 546.081 169.697 553.746 169.805C555.355 171.13 557.267 172.016 559.309 172.379C561.356 172.741 563.457 172.567 565.41 171.873C565.41 171.873 562.356 167.199 565.41 165.56C570.606 162.778 572.393 172.055 569.623 175.285C567.742 177.481 569.73 180.037 571.133 182.323C572.541 184.61 577.074 190.27 577.074 190.27C577.074 190.27 576.642 187.004 578.696 184.61C580.749 182.215 587.401 157.698 575.038 148.679C562.676 139.66 549.661 146.875 547.221 148.679C547.221 148.679 534.23 150.966 534.207 164.584C534.187 176.226 542.408 178.996 542.408 178.996L539.954 169.599C539.954 169.599 541.471 169.762 541.895 162.98Z" fill="#080B09"/>
  <path id="Vector_96" d="M555.71 184.691C555.71 184.691 556.669 187.713 553.414 189.116C551.214 189.845 549.678 187.674 549.678 187.674L555.71 184.691Z" fill="#E56441"/>
  <path id="Vector_97" d="M544.313 180.261C544.99 180.093 545.339 179.141 545.092 178.135C544.846 177.129 544.098 176.451 543.421 176.619C542.744 176.788 542.395 177.74 542.641 178.745C542.887 179.751 543.636 180.429 544.313 180.261Z" fill="#080B09"/>
  <path id="Vector_98" d="M554.349 177.916C555.023 177.748 555.372 176.796 555.13 175.79C554.881 174.785 554.136 174.106 553.455 174.275C552.779 174.443 552.43 175.395 552.677 176.4C552.922 177.406 553.674 178.085 554.349 177.916Z" fill="#080B09"/>
  <path id="Vector_99" d="M540.419 174.839L545.526 173.657C545.612 173.63 545.684 173.572 545.73 173.495C545.776 173.418 545.793 173.326 545.778 173.238C545.721 173.086 545.634 172.948 545.523 172.831C545.411 172.714 545.278 172.621 545.13 172.558C544.982 172.495 544.824 172.463 544.663 172.463C544.503 172.463 544.344 172.497 544.196 172.561L540.191 174.271C539.858 174.354 540.001 174.942 540.419 174.839Z" fill="#080B09"/>
  <path id="Vector_100" d="M557.568 170.231L550.916 172.332C550.872 172.122 550.871 171.906 550.915 171.696C550.958 171.487 551.045 171.289 551.169 171.115C551.293 170.942 551.452 170.796 551.636 170.688C551.819 170.58 552.023 170.512 552.234 170.488L557.551 169.789C557.716 169.748 557.817 170.168 557.568 170.231Z" fill="#080B09"/>
  <path id="Vector_101" d="M547.894 176.899L547.173 182.327L549.075 183.253" stroke="#E56441" stroke-width="0.94666" stroke-linecap="round"/>
  <path id="Vector_102" d="M660.954 122.974V41.4731" stroke="#5661AE" stroke-miterlimit="10"/>
  </g>
  <g id="idea" class="animation-up">
  <path id="Vector_103" d="M117.03 129.903C136.356 129.903 152.023 114.111 152.023 94.6307C152.023 75.1495 136.356 59.3574 117.03 59.3574C97.6989 59.3574 82.0317 75.1495 82.0317 94.6307C82.0317 114.111 97.6989 129.903 117.03 129.903Z" fill="#1C85E8"/>
  <path id="Vector_104" d="M129.499 93.7731C129.499 91.4918 128.884 89.253 127.719 87.2971C126.554 85.3411 124.883 83.7414 122.885 82.6695C120.887 81.5971 118.636 81.0928 116.375 81.2103C114.114 81.3277 111.928 82.0623 110.054 83.3362C108.175 84.61 106.677 86.374 105.716 88.4404C104.754 90.5068 104.372 92.7971 104.605 95.0669C104.838 97.3362 105.676 99.4991 107.034 101.324C108.393 103.149 110.222 104.567 112.32 105.426V109.554H121.72V105.426C124.02 104.483 125.989 102.871 127.372 100.795C128.76 98.72 129.499 96.2748 129.499 93.7731Z" stroke="white" stroke-width="3.71807" stroke-linecap="round" stroke-linejoin="round"/>
  <path id="Vector_105" d="M112.32 109.554H121.755V111.578C121.755 112.436 121.418 113.258 120.813 113.865C120.213 114.472 119.395 114.813 118.547 114.813H115.528C114.675 114.813 113.862 114.472 113.257 113.865C112.657 113.258 112.32 112.436 112.32 111.578V109.554Z" stroke="white" stroke-width="3.71807" stroke-linecap="round" stroke-linejoin="round"/>
  <path id="Vector_106" d="M114.913 109.554V95.1134C114.913 94.7676 114.775 94.4362 114.532 94.1919C114.289 93.9475 113.961 93.8101 113.619 93.8101H113.58C113.238 93.8101 112.905 93.9475 112.667 94.1919C112.424 94.4362 112.286 94.7676 112.286 95.1134C112.286 95.2843 112.32 95.4537 112.385 95.6121C112.449 95.77 112.543 95.9134 112.667 96.0349C112.786 96.1558 112.93 96.2518 113.084 96.3172C113.243 96.3827 113.411 96.4162 113.58 96.4162H120.461C120.63 96.4162 120.799 96.3827 120.957 96.3172C121.111 96.2518 121.255 96.1558 121.374 96.0349C121.498 95.9134 121.592 95.77 121.656 95.6121C121.721 95.4537 121.755 95.2843 121.755 95.1134C121.755 94.7676 121.617 94.4362 121.374 94.1919C121.131 93.9475 120.803 93.8101 120.461 93.8101H120.347C120.005 93.8101 119.678 93.9475 119.435 94.1919C119.192 94.4362 119.053 94.7676 119.053 95.1134V109.554" stroke="white" stroke-width="3.71807" stroke-linecap="round" stroke-linejoin="round"/>
  <path id="Vector_107" d="M117.035 74.4478V77.676" stroke="white" stroke-width="3.71807" stroke-linecap="round" stroke-linejoin="round"/>
  <path id="Vector_108" d="M105.488 77.5576L107.09 80.3536" stroke="white" stroke-width="3.71807" stroke-linecap="round" stroke-linejoin="round"/>
  <path id="Vector_109" d="M97.0352 86.0696L99.8066 87.6837" stroke="white" stroke-width="3.71807" stroke-linecap="round" stroke-linejoin="round"/>
  <path id="Vector_110" d="M137.021 86.0969L134.25 87.7111" stroke="white" stroke-width="3.71807" stroke-linecap="round" stroke-linejoin="round"/>
  <path id="Vector_111" d="M128.578 77.5735L126.976 80.369" stroke="white" stroke-width="3.71807" stroke-linecap="round" stroke-linejoin="round"/>
  </g>
  <g id="report" class="animation-left">
  <path id="Vector_112" d="M762.175 307.855H706.291C702.081 307.855 698.971 304.415 699.343 300.172L706.841 214.821C707.214 210.578 710.929 207.138 715.138 207.138H771.023C775.234 207.138 778.342 210.578 777.97 214.821L770.471 300.172C770.098 304.415 766.383 307.855 762.175 307.855Z" fill="#5CA4E6"/>
  <path id="Vector_113" d="M754.175 255.332C763.026 246.799 763.916 233.264 756.168 225.1C748.419 216.936 734.964 217.236 726.115 225.769C717.266 234.302 716.374 247.837 724.123 256.001C731.872 264.165 745.327 263.865 754.175 255.332Z" fill="white"/>
  <path id="Vector_114" d="M741.329 241.215L755.357 254.111C755.357 254.111 758.549 250.653 759.501 248.182L741.329 241.215Z" fill="url(#paint5_linear_7_1145)"/>
  <path id="Vector_115" d="M742.264 216.442L740.27 239.133C740.226 239.547 740.302 239.964 740.491 240.334C740.679 240.704 740.971 241.01 741.329 241.215L760.364 251.896C760.364 251.896 771.667 220.112 742.264 216.442Z" fill="#2651F0"/>
  <path id="Vector_116" d="M712.47 277.646H735.622" stroke="white" stroke-width="12" stroke-miterlimit="10" stroke-linecap="round"/>
  <path id="Vector_117" d="M710.775 296.938H733.927" stroke="white" stroke-width="12" stroke-miterlimit="10" stroke-linecap="round"/>
  <path id="Vector_118" opacity="0.4" d="M711.633 287.183H759.477" stroke="white" stroke-width="12" stroke-miterlimit="10" stroke-linecap="round"/>
  </g>
  </g>
  <defs>
  <linearGradient id="paint0_linear_7_1145" x1="376.439" y1="93.0533" x2="423.46" y2="729.49" gradientUnits="userSpaceOnUse">
  <stop stop-color="white"/>
  <stop offset="1" stop-color="#94B9FF"/>
  </linearGradient>
  <linearGradient id="paint1_linear_7_1145" x1="482.441" y1="340.613" x2="545.134" y2="665.035" gradientUnits="userSpaceOnUse">
  <stop stop-color="white"/>
  <stop offset="1" stop-color="#94B9FF"/>
  </linearGradient>
  <linearGradient id="paint2_linear_7_1145" x1="232.798" y1="252.89" x2="233.646" y2="273.966" gradientUnits="userSpaceOnUse">
  <stop stop-color="white"/>
  <stop offset="1" stop-color="#94B9FF"/>
  </linearGradient>
  <linearGradient id="paint3_linear_7_1145" x1="222.936" y1="256.715" x2="254.725" y2="458.873" gradientUnits="userSpaceOnUse">
  <stop stop-color="white"/>
  <stop offset="1" stop-color="#94B9FF"/>
  </linearGradient>
  <linearGradient id="paint4_linear_7_1145" x1="252.659" y1="262.653" x2="261.965" y2="352.116" gradientUnits="userSpaceOnUse">
  <stop stop-color="white"/>
  <stop offset="1" stop-color="#94B9FF"/>
  </linearGradient>
  <linearGradient id="paint5_linear_7_1145" x1="749.962" y1="241.184" x2="752.079" y2="268.685" gradientUnits="userSpaceOnUse">
  <stop stop-color="white"/>
  <stop offset="1" stop-color="#94B9FF"/>
  </linearGradient>
  </defs>
</svg>