<svg width="100%" height="auto" id="ev7p1G9zNZH1" xmlns="http://www.w3.org/2000/svg" xmlns:xlink="http://www.w3.org/1999/xlink" viewBox="0 0 783 515" shape-rendering="geometricPrecision" text-rendering="geometricPrecision"><defs><linearGradient id="ev7p1G9zNZH2-fill" x1="16.8123" y1="209.993" x2="773.43" y2="209.993" spreadMethod="pad" gradientUnits="userSpaceOnUse" gradientTransform="translate(0 0)"><stop id="ev7p1G9zNZH2-fill-0" offset="0%" stop-color="#e1cfe4"/><stop id="ev7p1G9zNZH2-fill-1" offset="100%" stop-color="#fff"/></linearGradient><linearGradient id="ev7p1G9zNZH3-fill" x1="401.416" y1="467.02" x2="400.864" y2="462.731" spreadMethod="pad" gradientUnits="userSpaceOnUse" gradientTransform="translate(0 0)"><stop id="ev7p1G9zNZH3-fill-0" offset="0%" stop-color="#f2c30d"/><stop id="ev7p1G9zNZH3-fill-1" offset="100%" stop-color="#6e3198"/></linearGradient><linearGradient id="ev7p1G9zNZH6-fill" x1="94.2801" y1="192.267" x2="94.2801" y2="267.23" spreadMethod="pad" gradientUnits="userSpaceOnUse" gradientTransform="translate(0 0)"><stop id="ev7p1G9zNZH6-fill-0" offset="0%" stop-color="#7633ff"/><stop id="ev7p1G9zNZH6-fill-1" offset="15.85%" stop-color="#7137ff"/><stop id="ev7p1G9zNZH6-fill-2" offset="35.35%" stop-color="#6243ff"/><stop id="ev7p1G9zNZH6-fill-3" offset="56.76%" stop-color="#4957ff"/><stop id="ev7p1G9zNZH6-fill-4" offset="79.37%" stop-color="#2672ff"/><stop id="ev7p1G9zNZH6-fill-5" offset="100%" stop-color="#0090ff"/></linearGradient><linearGradient id="ev7p1G9zNZH7-fill" x1="110.207" y1="192.267" x2="110.207" y2="267.23" spreadMethod="pad" gradientUnits="userSpaceOnUse" gradientTransform="translate(0 0)"><stop id="ev7p1G9zNZH7-fill-0" offset="0%" stop-color="#7633ff"/><stop id="ev7p1G9zNZH7-fill-1" offset="15.85%" stop-color="#7137ff"/><stop id="ev7p1G9zNZH7-fill-2" offset="35.35%" stop-color="#6243ff"/><stop id="ev7p1G9zNZH7-fill-3" offset="56.76%" stop-color="#4957ff"/><stop id="ev7p1G9zNZH7-fill-4" offset="79.37%" stop-color="#2672ff"/><stop id="ev7p1G9zNZH7-fill-5" offset="100%" stop-color="#0090ff"/></linearGradient><linearGradient id="ev7p1G9zNZH8-fill" x1="126.135" y1="192.267" x2="126.135" y2="267.23" spreadMethod="pad" gradientUnits="userSpaceOnUse" gradientTransform="translate(0 0)"><stop id="ev7p1G9zNZH8-fill-0" offset="0%" stop-color="#7633ff"/><stop id="ev7p1G9zNZH8-fill-1" offset="15.85%" stop-color="#7137ff"/><stop id="ev7p1G9zNZH8-fill-2" offset="35.35%" stop-color="#6243ff"/><stop id="ev7p1G9zNZH8-fill-3" offset="56.76%" stop-color="#4957ff"/><stop id="ev7p1G9zNZH8-fill-4" offset="79.37%" stop-color="#2672ff"/><stop id="ev7p1G9zNZH8-fill-5" offset="100%" stop-color="#0090ff"/></linearGradient><linearGradient id="ev7p1G9zNZH9-fill" x1="142.062" y1="192.267" x2="142.062" y2="267.23" spreadMethod="pad" gradientUnits="userSpaceOnUse" gradientTransform="translate(0 0)"><stop id="ev7p1G9zNZH9-fill-0" offset="0%" stop-color="#7633ff"/><stop id="ev7p1G9zNZH9-fill-1" offset="15.85%" stop-color="#7137ff"/><stop id="ev7p1G9zNZH9-fill-2" offset="35.35%" stop-color="#6243ff"/><stop id="ev7p1G9zNZH9-fill-3" offset="56.76%" stop-color="#4957ff"/><stop id="ev7p1G9zNZH9-fill-4" offset="79.37%" stop-color="#2672ff"/><stop id="ev7p1G9zNZH9-fill-5" offset="100%" stop-color="#0090ff"/></linearGradient><linearGradient id="ev7p1G9zNZH10-fill" x1="157.988" y1="192.267" x2="157.988" y2="267.23" spreadMethod="pad" gradientUnits="userSpaceOnUse" gradientTransform="translate(0 0)"><stop id="ev7p1G9zNZH10-fill-0" offset="0%" stop-color="#7633ff"/><stop id="ev7p1G9zNZH10-fill-1" offset="15.85%" stop-color="#7137ff"/><stop id="ev7p1G9zNZH10-fill-2" offset="35.35%" stop-color="#6243ff"/><stop id="ev7p1G9zNZH10-fill-3" offset="56.76%" stop-color="#4957ff"/><stop id="ev7p1G9zNZH10-fill-4" offset="79.37%" stop-color="#2672ff"/><stop id="ev7p1G9zNZH10-fill-5" offset="100%" stop-color="#0090ff"/></linearGradient><linearGradient id="ev7p1G9zNZH11-fill" x1="173.916" y1="192.267" x2="173.916" y2="267.23" spreadMethod="pad" gradientUnits="userSpaceOnUse" gradientTransform="translate(0 0)"><stop id="ev7p1G9zNZH11-fill-0" offset="0%" stop-color="#7633ff"/><stop id="ev7p1G9zNZH11-fill-1" offset="15.85%" stop-color="#7137ff"/><stop id="ev7p1G9zNZH11-fill-2" offset="35.35%" stop-color="#6243ff"/><stop id="ev7p1G9zNZH11-fill-3" offset="56.76%" stop-color="#4957ff"/><stop id="ev7p1G9zNZH11-fill-4" offset="79.37%" stop-color="#2672ff"/><stop id="ev7p1G9zNZH11-fill-5" offset="100%" stop-color="#0090ff"/></linearGradient><linearGradient id="ev7p1G9zNZH12-fill" x1="189.843" y1="192.267" x2="189.843" y2="267.23" spreadMethod="pad" gradientUnits="userSpaceOnUse" gradientTransform="translate(0 0)"><stop id="ev7p1G9zNZH12-fill-0" offset="0%" stop-color="#7633ff"/><stop id="ev7p1G9zNZH12-fill-1" offset="15.85%" stop-color="#7137ff"/><stop id="ev7p1G9zNZH12-fill-2" offset="35.35%" stop-color="#6243ff"/><stop id="ev7p1G9zNZH12-fill-3" offset="56.76%" stop-color="#4957ff"/><stop id="ev7p1G9zNZH12-fill-4" offset="79.37%" stop-color="#2672ff"/><stop id="ev7p1G9zNZH12-fill-5" offset="100%" stop-color="#0090ff"/></linearGradient><linearGradient id="ev7p1G9zNZH13-fill" x1="205.77" y1="192.267" x2="205.77" y2="267.23" spreadMethod="pad" gradientUnits="userSpaceOnUse" gradientTransform="translate(0 0)"><stop id="ev7p1G9zNZH13-fill-0" offset="0%" stop-color="#7633ff"/><stop id="ev7p1G9zNZH13-fill-1" offset="15.85%" stop-color="#7137ff"/><stop id="ev7p1G9zNZH13-fill-2" offset="35.35%" stop-color="#6243ff"/><stop id="ev7p1G9zNZH13-fill-3" offset="56.76%" stop-color="#4957ff"/><stop id="ev7p1G9zNZH13-fill-4" offset="79.37%" stop-color="#2672ff"/><stop id="ev7p1G9zNZH13-fill-5" offset="100%" stop-color="#0090ff"/></linearGradient><linearGradient id="ev7p1G9zNZH14-fill" x1="221.697" y1="192.267" x2="221.697" y2="267.23" spreadMethod="pad" gradientUnits="userSpaceOnUse" gradientTransform="translate(0 0)"><stop id="ev7p1G9zNZH14-fill-0" offset="0%" stop-color="#7633ff"/><stop id="ev7p1G9zNZH14-fill-1" offset="15.85%" stop-color="#7137ff"/><stop id="ev7p1G9zNZH14-fill-2" offset="35.35%" stop-color="#6243ff"/><stop id="ev7p1G9zNZH14-fill-3" offset="56.76%" stop-color="#4957ff"/><stop id="ev7p1G9zNZH14-fill-4" offset="79.37%" stop-color="#2672ff"/><stop id="ev7p1G9zNZH14-fill-5" offset="100%" stop-color="#0090ff"/></linearGradient><linearGradient id="ev7p1G9zNZH15-fill" x1="237.624" y1="192.267" x2="237.624" y2="267.23" spreadMethod="pad" gradientUnits="userSpaceOnUse" gradientTransform="translate(0 0)"><stop id="ev7p1G9zNZH15-fill-0" offset="0%" stop-color="#7633ff"/><stop id="ev7p1G9zNZH15-fill-1" offset="15.85%" stop-color="#7137ff"/><stop id="ev7p1G9zNZH15-fill-2" offset="35.35%" stop-color="#6243ff"/><stop id="ev7p1G9zNZH15-fill-3" offset="56.76%" stop-color="#4957ff"/><stop id="ev7p1G9zNZH15-fill-4" offset="79.37%" stop-color="#2672ff"/><stop id="ev7p1G9zNZH15-fill-5" offset="100%" stop-color="#0090ff"/></linearGradient><linearGradient id="ev7p1G9zNZH16-fill" x1="253.551" y1="192.267" x2="253.551" y2="267.23" spreadMethod="pad" gradientUnits="userSpaceOnUse" gradientTransform="translate(0 0)"><stop id="ev7p1G9zNZH16-fill-0" offset="0%" stop-color="#7633ff"/><stop id="ev7p1G9zNZH16-fill-1" offset="15.85%" stop-color="#7137ff"/><stop id="ev7p1G9zNZH16-fill-2" offset="35.35%" stop-color="#6243ff"/><stop id="ev7p1G9zNZH16-fill-3" offset="56.76%" stop-color="#4957ff"/><stop id="ev7p1G9zNZH16-fill-4" offset="79.37%" stop-color="#2672ff"/><stop id="ev7p1G9zNZH16-fill-5" offset="100%" stop-color="#0090ff"/></linearGradient><linearGradient id="ev7p1G9zNZH43-fill" x1="442.607" y1="404.055" x2="442.607" y2="351.581" spreadMethod="pad" gradientUnits="userSpaceOnUse" gradientTransform="translate(0 0)"><stop id="ev7p1G9zNZH43-fill-0" offset="0%" stop-color="#7633ff"/><stop id="ev7p1G9zNZH43-fill-1" offset="15.85%" stop-color="#7137ff"/><stop id="ev7p1G9zNZH43-fill-2" offset="35.35%" stop-color="#6243ff"/><stop id="ev7p1G9zNZH43-fill-3" offset="56.76%" stop-color="#4957ff"/><stop id="ev7p1G9zNZH43-fill-4" offset="79.37%" stop-color="#2672ff"/><stop id="ev7p1G9zNZH43-fill-5" offset="100%" stop-color="#0090ff"/></linearGradient><linearGradient id="ev7p1G9zNZH48-fill" x1="451.648" y1="403.698" x2="451.648" y2="350.094" spreadMethod="pad" gradientUnits="userSpaceOnUse" gradientTransform="translate(0 0)"><stop id="ev7p1G9zNZH48-fill-0" offset="0%" stop-color="#311341"/><stop id="ev7p1G9zNZH48-fill-1" offset="22.99%" stop-color="#3113c2"/><stop id="ev7p1G9zNZH48-fill-2" offset="34.79%" stop-color="#2f18c5"/><stop id="ev7p1G9zNZH48-fill-3" offset="49.31%" stop-color="#2927cc"/><stop id="ev7p1G9zNZH48-fill-4" offset="65.24%" stop-color="#1f40d8"/><stop id="ev7p1G9zNZH48-fill-5" offset="82.19%" stop-color="#1263e9"/><stop id="ev7p1G9zNZH48-fill-6" offset="99.78%" stop-color="#008fff"/><stop id="ev7p1G9zNZH48-fill-7" offset="100%" stop-color="#0090ff"/></linearGradient><linearGradient id="ev7p1G9zNZH55-fill" x1="103.199" y1="274.38" x2="132.666" y2="274.38" spreadMethod="pad" gradientUnits="userSpaceOnUse" gradientTransform="translate(0 0)"><stop id="ev7p1G9zNZH55-fill-0" offset="0%" stop-color="#7633ff"/><stop id="ev7p1G9zNZH55-fill-1" offset="15.85%" stop-color="#7137ff"/><stop id="ev7p1G9zNZH55-fill-2" offset="35.35%" stop-color="#6243ff"/><stop id="ev7p1G9zNZH55-fill-3" offset="56.76%" stop-color="#4957ff"/><stop id="ev7p1G9zNZH55-fill-4" offset="79.37%" stop-color="#2672ff"/><stop id="ev7p1G9zNZH55-fill-5" offset="100%" stop-color="#0090ff"/></linearGradient><linearGradient id="ev7p1G9zNZH80-fill" x1="77.6493" y1="255.758" x2="96.8595" y2="255.758" spreadMethod="pad" gradientUnits="userSpaceOnUse" gradientTransform="translate(0 0)"><stop id="ev7p1G9zNZH80-fill-0" offset="0%" stop-color="#88cfda"/><stop id="ev7p1G9zNZH80-fill-1" offset="5.06%" stop-color="#93d1d5"/><stop id="ev7p1G9zNZH80-fill-2" offset="25.02%" stop-color="#bad7c2"/><stop id="ev7p1G9zNZH80-fill-3" offset="44.81%" stop-color="#d8dbb3"/><stop id="ev7p1G9zNZH80-fill-4" offset="64.14%" stop-color="#eedea8"/><stop id="ev7p1G9zNZH80-fill-5" offset="82.79%" stop-color="#fbe0a2"/><stop id="ev7p1G9zNZH80-fill-6" offset="100%" stop-color="#ffe1a0"/></linearGradient><linearGradient id="ev7p1G9zNZH97-fill" x1="605.436" y1="281.866" x2="576.855" y2="281.866" spreadMethod="pad" gradientUnits="userSpaceOnUse" gradientTransform="translate(0 0)"><stop id="ev7p1G9zNZH97-fill-0" offset="0%" stop-color="#7633ff"/><stop id="ev7p1G9zNZH97-fill-1" offset="15.85%" stop-color="#7137ff"/><stop id="ev7p1G9zNZH97-fill-2" offset="35.35%" stop-color="#6243ff"/><stop id="ev7p1G9zNZH97-fill-3" offset="56.76%" stop-color="#4957ff"/><stop id="ev7p1G9zNZH97-fill-4" offset="79.37%" stop-color="#2672ff"/><stop id="ev7p1G9zNZH97-fill-5" offset="100%" stop-color="#0090ff"/></linearGradient><linearGradient id="ev7p1G9zNZH120-fill" x1="630.218" y1="263.803" x2="611.586" y2="263.803" spreadMethod="pad" gradientUnits="userSpaceOnUse" gradientTransform="translate(0 0)"><stop id="ev7p1G9zNZH120-fill-0" offset="0%" stop-color="#88cfda"/><stop id="ev7p1G9zNZH120-fill-1" offset="5.06%" stop-color="#93d1d5"/><stop id="ev7p1G9zNZH120-fill-2" offset="25.02%" stop-color="#bad7c2"/><stop id="ev7p1G9zNZH120-fill-3" offset="44.81%" stop-color="#d8dbb3"/><stop id="ev7p1G9zNZH120-fill-4" offset="64.14%" stop-color="#eedea8"/><stop id="ev7p1G9zNZH120-fill-5" offset="82.79%" stop-color="#fbe0a2"/><stop id="ev7p1G9zNZH120-fill-6" offset="100%" stop-color="#ffe1a0"/></linearGradient></defs><path d="M28.74,419.86h742.21c0,0,25.7-174.93-88.36-282.93-114.06-108.0001-279.53-24.34-279.53-24.34s-92.17-159.0101-228.13-98.8701C-45.16,111.07,28.74,419.86,28.74,419.86Z" transform="translate(-.02 0.931816)" fill="url(#ev7p1G9zNZH2-fill)"/><path d="M38.79,417.42c0,0-47.80999,11.73-36.05999,57.58C8.87001,498.96,53.84,504.5,116.88,504.5c1.48,0,2.94-.01,4.41-.02c1.35.45,2.71.89,4.09,1.3c74.09,21.93,175.24.04,266.72-27.49c71.62-21.55,233.78-17.68,284.39-17.68c175.04,0,80.92-43.19,80.92-43.19h-718.62Z" clip-rule="evenodd" fill="url(#ev7p1G9zNZH3-fill)" fill-rule="evenodd"/><path d="M730.816,444.986c1.26,1.26.367,3.414-1.414,3.414h-427.392c-1.105,0-2-.896-2-2v-27.91c0-1.105.895-2,2-2h399.482c.53,0,1.039.211,1.414.586l27.91,27.91Z" opacity="0.5" fill="#000640"/><path d="M379,484c0,6.624-50.368,12-112.5,12s-112.5-5.369-112.5-12c0-6.624,50.368-12,112.5-12c62.139.007,112.5,5.376,112.5,12Z" opacity="0.5" clip-rule="evenodd" fill="#000640" fill-rule="evenodd"/><path id="ev7p1G9zNZH6" d="M98.4099,189.5h-8.25v74.48h8.25v-74.48Z" transform="matrix(1 0 0 0.002546 0 263.317881)" fill="url(#ev7p1G9zNZH6-fill)"/><path id="ev7p1G9zNZH7" d="M114.33,214.8h-8.25v49.19h8.25v-49.19Z" transform="matrix(1 0 0 0 0 263.800312)" fill="url(#ev7p1G9zNZH7-fill)"/><path id="ev7p1G9zNZH8" d="M130.26,198.76h-8.25v65.6h8.25v-65.6Z" transform="matrix(1 0 0 0.000044 0 264.453364)" fill="url(#ev7p1G9zNZH8-fill)"/><path id="ev7p1G9zNZH9" d="M146.19,192.38h-8.25v71.61h8.25v-71.61Z" transform="matrix(1 0 0-.000529 0 264.091732)" fill="url(#ev7p1G9zNZH9-fill)"/><path id="ev7p1G9zNZH10" d="M162.11,216.32h-8.25v47.67h8.25v-47.67Z" transform="matrix(1 0 0 0.000002 0.14 263.951573)" fill="url(#ev7p1G9zNZH10-fill)"/><path id="ev7p1G9zNZH11" d="M178.04,225.67h-8.25v38.32h8.25v-38.32Z" transform="matrix(1 0 0-.000073 0 264.379299)" fill="url(#ev7p1G9zNZH11-fill)"/><path id="ev7p1G9zNZH12" d="M193.97,197.15h-8.25v66.84h8.25v-66.84Z" transform="matrix(1 0 0 0 0 263.952101)" fill="url(#ev7p1G9zNZH12-fill)"/><path id="ev7p1G9zNZH13" d="M209.89,209.2h-8.25v54.79h8.25v-54.79Z" transform="matrix(1 0 0-.000025 0 263.996602)" fill="url(#ev7p1G9zNZH13-fill)"/><path id="ev7p1G9zNZH14" d="M225.82,199.57h-8.25v64.42h8.25v-64.42Z" transform="matrix(1 0 0-.000561 0 263.880178)" fill="url(#ev7p1G9zNZH14-fill)"/><path id="ev7p1G9zNZH15" d="M241.75,220.1h-8.25v43.89h8.25v-43.89Z" transform="matrix(1 0 0-.00069 0 263.95216)" fill="url(#ev7p1G9zNZH15-fill)"/><path id="ev7p1G9zNZH16" d="M257.68,211.75h-8.25v52.24h8.25v-52.24Z" transform="matrix(1 0 0-.000107 0 263.798248)" fill="url(#ev7p1G9zNZH16-fill)"/><path d="M252.57,206.39c0,.01-.17-.01-.5-.06-.36-.06-.84-.13-1.44-.23-.63-.12-1.42-.22-2.35-.31-.47-.05-.97-.1-1.51-.16-.54-.02-1.11-.05-1.72-.08-2.43-.11-5.42-.04-8.84.48-3.41.5-7.26,1.44-11.29,3.07-4.02,1.63-8.24,3.93-12.17,7.19-3.99,3.2-7.47,7.45-10.9,12.08-3.46,4.59-6.99,9.63-11.9,13.69-2.43,2.03-5.19,3.79-8.26,4.99-3.07,1.18-6.49,1.69-9.85,1.21-3.38-.41-6.51-1.8-9.29-3.52-2.76-1.78-5.21-3.91-7.37-6.22-4.36-4.61-7.52-9.85-10.86-14.53-3.3-4.7-6.78-8.99-10.85-12.08-2.01-1.57-4.2-2.7-6.37-3.62-2.19-.88-4.41-1.42-6.54-1.76-4.29-.64-8.27-.27-11.62.5-3.36.78-6.1,2.01-8.22,3.18-2.08,1.26-3.59,2.41-4.54,3.26-.45.41-.81.74-1.08.98-.25.22-.38.33-.3906.32-.0094-.01.1106-.13.3406-.37.26-.26.6-.6,1.04-1.03.93-.89,2.42-2.08,4.5-3.39c2.12-1.22,4.87-2.5,8.27-3.33c3.38-.81,7.41-1.23,11.78-.61c2.17.33,4.43.86,6.67,1.75c2.21.92,4.47,2.08,6.52,3.66c4.16,3.12,7.69,7.45,11.02,12.16c3.36,4.7,6.53,9.9,10.83,14.43c2.13,2.28,4.55,4.36,7.24,6.1c2.72,1.68,5.75,3.03,9.01,3.42c3.24.46,6.53-.03,9.51-1.17c2.98-1.16,5.68-2.88,8.07-4.87c4.82-3.98,8.34-8.97,11.82-13.56c1.74-2.3,3.46-4.54,5.28-6.6.92-1.02,1.82-2.03,2.81-2.93.49-.46.97-.91,1.45-1.36.49-.43,1-.83,1.5-1.25c4-3.28,8.28-5.59,12.35-7.2c4.08-1.62,7.97-2.53,11.42-3c3.45-.48,6.46-.52,8.9-.37.61.04,1.19.07,1.73.11.54.07,1.04.13,1.51.19.94.11,1.72.23,2.35.37.6.13,1.08.22,1.43.3.35.12.51.16.51.17ZM81.07,269.18c-.19,0-.35-21.24-.35-47.43c0-26.2.15-47.44.35-47.44.19,0,.35,21.23.35,47.44c0,26.19-.15,47.43-.35,47.43Zm179.97,0c0,.19-39.13.35-87.39.35-48.28,0-87.4-.15-87.4-.35c0-.19,39.12-.35,87.4-.35c48.26,0,87.39.16,87.39.35Zm-159.12,5.86c0,.19-2.74.35-6.12.35s-6.12-.16-6.12-.35s2.74-.35,6.12-.35s6.12.16,6.12.35Zm20.31.3c0,.19-3.28.35-7.32.35s-7.32-.16-7.32-.35s3.28-.35,7.32-.35s7.32.16,7.32.35Zm17.32,0c0,.19-3.28.35-7.32.35s-7.32-.16-7.32-.35s3.28-.35,7.32-.35c4.05,0,7.32.16,7.32.35Zm17.32,0c0,.19-3.28.35-7.32.35s-7.32-.16-7.32-.35s3.27-.35,7.32-.35s7.32.16,7.32.35Zm17.33,0c0,.19-3.28.35-7.32.35s-7.32-.16-7.32-.35s3.28-.35,7.32-.35s7.32.16,7.32.35Zm17.32,0c0,.19-3.28.35-7.32.35s-7.32-.16-7.32-.35s3.28-.35,7.32-.35s7.32.16,7.32.35Zm17.32,0c0,.19-3.28.35-7.32.35s-7.32-.16-7.32-.35s3.28-.35,7.32-.35s7.32.16,7.32.35Zm17.32,0c0,.19-3.28.35-7.32.35s-7.32-.16-7.32-.35s3.28-.35,7.32-.35s7.32.16,7.32.35Zm17.32,0c0,.19-3.28.35-7.32.35s-7.32-.16-7.32-.35s3.28-.35,7.32-.35c4.05,0,7.32.16,7.32.35Zm17.32,0c0,.19-3.28.35-7.32.35s-7.32-.16-7.32-.35s3.28-.35,7.32-.35c4.05,0,7.32.16,7.32.35Z" fill="#1a2e35"/><path d="M146.54,224.88c-.02-.09.71.02.99.96.12.44.12,1.06-.33,1.6-.44.55-1.32.67-1.98.35-.67-.29-1.17-1.02-1.05-1.72.1-.68.57-1.1.98-1.3.89-.42,1.46.05,1.38.1-.03.1-.54-.09-1.13.32-.28.2-.56.55-.59.95-.04.39.24.81.7,1.02.46.2.96.14,1.23-.15.28-.28.36-.73.32-1.07-.09-.71-.58-.96-.52-1.06Zm79.73-17.98c0-.04.16-.1.47-.05.3.05.73.25,1.08.69.35.42.61,1.18.29,1.94-.31.73-1.09,1.3-2.02,1.3-.97,0-1.68-.78-1.88-1.49-.24-.74-.01-1.51.39-1.91.82-.82,1.59-.69,1.57-.63.04.11-.65.21-1.19.94-.26.35-.36.87-.17,1.4.19.52.68,1,1.29,1c.61.01,1.2-.4,1.43-.87.24-.48.12-1.02-.11-1.39-.47-.78-1.17-.82-1.15-.93Z" fill="#1a2e35"/><path d="M227.57,172.13c-.19,0-.35-.45-.35-1s.16-1,.35-1s.35.45.35,1c-.01.55-.16,1-.35,1Zm0,8.66c-.19,0-.35-.97-.35-2.17s.16-2.17.35-2.17.35.97.35,2.17c-.01,1.2-.16,2.17-.35,2.17Zm0,8.67c-.19,0-.35-.97-.35-2.17s.16-2.17.35-2.17.35.97.35,2.17c-.01,1.2-.16,2.17-.35,2.17Zm0,8.67c-.19,0-.35-.97-.35-2.17s.16-2.17.35-2.17.35.97.35,2.17c-.01,1.2-.16,2.17-.35,2.17Zm0,6.33c-.19,0-.35-.45-.35-1s.16-1,.35-1s.35.45.35,1c-.01.55-.16,1-.35,1Z" fill="#1a2e35"/><g><path d="M285.17,409.05c0,0-10.2,13.83-44.83,13-25.24-.6-50.26-19.71-50.26-19.71s42.83-28.38,95.09,6.71Z" fill="#a600a9"/><path d="M284.63,410.5c0,0-20.89,2.25-48.76-29.6-20.31-23.22-23.8-61.52-23.8-61.52s60.96,15.08,72.56,91.12Z" fill="#e2711d"/><path d="M283.69,409.93c0,0-19.04-8.88-26.4-50.56-5.37-30.38,11.48-64.96,11.48-64.96s44.33,44.45,14.92,115.52Z" fill="#4c956c"/></g><g><path d="M660.28,417.43c0,0,10.14,13.75,44.55,12.92c25.08-.6,49.94-19.59,49.94-19.59s-42.56-28.2-94.49,6.67Z" fill="#a600a9"/><path d="M660.81,418.87c0,0,20.75,2.24,48.45-29.42c20.19-23.07,23.65-61.14,23.65-61.14s-60.57,15-72.1,90.56Z" fill="#e2711d"/><path d="M661.75,418.31c0,0,18.92-8.83,26.23-50.24c5.33-30.19-11.41-64.55-11.41-64.55s-44.05,44.17-14.82,114.79Z" fill="#4c956c"/></g><g transform="translate(0-.659995)"><path d="M657.18,155L288,155c-4.418,0-8,3.582-8,8v252.24c0,4.418,3.582,8,8,8h369.18c4.418,0,8-3.582,8-8v-252.24c0-4.418-3.582-8-8-8Z" fill="#6e3198"/><path d="M647,171h-337c-1.105,0-2,.895-2,2v235c0,1.105.895,2,2,2h337c1.105,0,2-.895,2-2v-235c0-1.105-.895-2-2-2Z" fill="#eee"/><path d="M294.97,188.5c2.22,0,4.02-1.8,4.02-4.02s-1.8-4.02-4.02-4.02-4.02,1.8-4.02,4.02s1.8,4.02,4.02,4.02Z" fill="#f2c30d"/><path d="M294.97,215.73c2.22,0,4.02-1.8,4.02-4.02s-1.8-4.02-4.02-4.02-4.02,1.8-4.02,4.02s1.8,4.02,4.02,4.02Z" fill="#f2c30d"/><path d="M294.97,245.63c2.22,0,4.02-1.8,4.02-4.02s-1.8-4.02-4.02-4.02-4.02,1.8-4.02,4.02s1.8,4.02,4.02,4.02Z" fill="#f2c30d"/><path id="ev7p1G9zNZH34" d="M619.99,355.68c-13.41,3.91-13.36-2.31-29.36-5.03-15.99-2.72-20.95,2.72-28.66,8.35-7.7,5.62-19.61-.27-26.95-2.77-7.35-2.5-18.35,1.43-26.92,8.51-2.81,2.33-6.74,3.64-10.74,4.37v31.55h152.16v-65.95c-9.84,5.24-18.84,17.85-29.53,20.97Z" transform="translate(0-4.793342)" fill="#e5383b"/><path d="M619.99,364.95c-13.41,3.91-13.36-2.31-29.36-5.03-15.99-2.72-20.95,2.72-28.66,8.35s-19.61-.27-26.95-2.77c-7.35-2.5-18.35,1.43-26.92,8.51-2.81,2.33-6.74,3.64-10.74,4.37v31.55h152.16v-65.95c-9.84,5.25-18.84,17.85-29.53,20.97Z" transform="translate(0 0.000001)" fill="#2651f0"/><path id="ev7p1G9zNZH36" d="M422.25,248.79h-17.94v64.41h17.94v-64.41Z" transform="translate(.337462 0.010177)" fill="#a600a9"/><path id="ev7p1G9zNZH37" d="M442.53,236.59h-17.94v76.61h17.94v-76.61Z" transform="translate(.62 0)" fill="#2672ff"/><path id="ev7p1G9zNZH38" d="M462.89,194.83h-17.94v118.38h17.94v-118.38Z" transform="translate(0 0.000001)" fill="#a600a9"/><path id="ev7p1G9zNZH39" d="M342.89,244.74h-17.94v68.46h17.94v-68.46Z" fill="#a600a9"/><path id="ev7p1G9zNZH40" d="M362.63,224.59h-17.94v88.61h17.94v-88.61Z" fill="#2672ff"/><path id="ev7p1G9zNZH41" d="M382.23,270.42h-17.94v42.79h17.94v-42.79Z" transform="translate(.000002 0)" fill="#2672ff"/><path id="ev7p1G9zNZH42" d="M402.1,282.84h-17.94v30.36h17.94v-30.36Z" transform="translate(.02-.037059)" fill="#2672ff"/><path id="ev7p1G9zNZH43" d="M445.54,356.72h-5.87v44.3h5.87v-44.3Z" transform="matrix(1 0 0 0 0 401.01)" fill="url(#ev7p1G9zNZH43-fill)"/><path id="ev7p1G9zNZH44" d="M436.5,375.36h-5.87v25.65h5.87v-25.65Z" transform="matrix(1 0 0 0 0 401.01)" fill="#005cb4"/><path id="ev7p1G9zNZH45" d="M427.46,371.36h-5.87v29.66h5.87v-29.66Z" transform="matrix(1 0 0 0 0 401.01)" fill="#a600a9"/><path d="M418.42,389.06h-5.87v11.96h5.87v-11.96Z" fill="#005cb4"/><path id="ev7p1G9zNZH47" d="M463.63,347.04h-5.87v53.97h5.87v-53.97Z" transform="matrix(1 0 0 0 0 401.01)" fill="#00759f"/><path id="ev7p1G9zNZH48" d="M454.58,351.98h-5.87v49.04h5.87v-49.04Z" transform="matrix(1 0 0 0 0 401.02)" fill="url(#ev7p1G9zNZH48-fill)"/><path id="ev7p1G9zNZH49" d="M481.71,341.7h-5.87v59.31h5.87v-59.31Z" transform="matrix(1 0 0 0 0 401.02)" fill="#a600a9"/><path id="ev7p1G9zNZH50" d="M472.67,329.99h-5.87v71.03h5.87v-71.03Z" transform="matrix(1 0 0 0 0 401.02)" fill="#005cb4"/><path d="M418.26,406.58c0,.14-1.16.25-2.6.25-1.43,0-2.6-.11-2.6-.25s1.16-.26,2.6-.26s2.6.12,2.6.26Zm8.92,0c0,.14-1.16.25-2.6.25-1.43,0-2.59-.11-2.59-.25s1.16-.26,2.59-.26c1.44,0,2.6.12,2.6.26Zm8.91,0c0,.14-1.16.25-2.59.25s-2.59-.11-2.59-.25s1.16-.26,2.59-.26s2.59.12,2.59.26Zm8.91,0c0,.14-1.16.25-2.59.25s-2.6-.11-2.6-.25s1.16-.26,2.6-.26c1.43,0,2.59.12,2.59.26Zm8.92,0c0,.14-1.16.25-2.59.25s-2.6-.11-2.6-.25s1.16-.26,2.6-.26c1.43,0,2.59.12,2.59.26Zm8.91,0c0,.14-1.16.25-2.6.25-1.43,0-2.6-.11-2.6-.25s1.16-.26,2.6-.26s2.6.12,2.6.26Zm8.92,0c0,.14-1.16.25-2.6.25-1.43,0-2.59-.11-2.59-.25s1.16-.26,2.59-.26s2.6.12,2.6.26Zm8.91,0c0,.14-1.16.25-2.6.25-1.43,0-2.59-.11-2.59-.25s1.16-.26,2.59-.26c1.44,0,2.6.12,2.6.26Z" fill="#1a2e35"/></g><path d="M102.77,447.23c30.166,0,54.62-3.595,54.62-8.03s-24.454-8.03-54.62-8.03c-30.1659,0-54.6201,3.595-54.6201,8.03s24.4542,8.03,54.6201,8.03Z" opacity="0.5" fill="#000640"/><g><path d="M108.75,256.43l-7.28,31.98c-.2.87.39,1.73,1.28,1.85l22.66,3.25c.79.11,1.53-.4,1.71-1.17l7.28-31.97c.2-.87-.39-1.73-1.27-1.86l-22.66-3.25c-.8-.12-1.54.39-1.72,1.17Z"/></g><path d="M110.17,257.46l-6.97,30.61l22.5,3.23l6.97-30.61-22.5-3.23Z" fill="url(#ev7p1G9zNZH55-fill)"/><path d="M130.28,262.94l-19.11-2.74" fill="none" stroke="#a1d2f0" stroke-width="1.481" stroke-linecap="round" stroke-linejoin="round"/><path d="M129.64,265.84l-19.12-2.75" fill="none" stroke="#a1d2f0" stroke-width="1.481" stroke-linecap="round" stroke-linejoin="round"/><path d="M121.68,268.24l-11.95-1.72" fill="none" stroke="#a1d2f0" stroke-width="1.481" stroke-linecap="round" stroke-linejoin="round"/><path d="M120.83,270.72l-11.95-1.71" fill="none" stroke="#a1d2f0" stroke-width="1.481" stroke-linecap="round" stroke-linejoin="round"/><path d="M119.98,273.21l-11.95-1.71" fill="none" stroke="#a1d2f0" stroke-width="1.481" stroke-linecap="round" stroke-linejoin="round"/><path d="M124.36,286.95l-11.94-1.71" fill="none" stroke="#a1d2f0" stroke-width="1.481" stroke-linecap="round" stroke-linejoin="round"/><path d="M100.03,288.78c1.28-.6,2.24-1.72,3.15-2.81.9-1.07,1.8-2.14,2.7-3.21.36-.42.73-.89.77-1.44-1.51-.12-2.48,1.84-3.99,1.95.7-2.48,1.71-4.88,3-7.12.31-.55.65-1.18.43-1.77-1.63.62-3.01,1.78-4.19,3.06-.83.9-1.6,1.87-2.2699,2.89-1.99,3.01-3.23,6.47-4.07,9.99" fill="#ffccb3"/><path d="M93.58,333.9l-7.04,16.14c2.97,5.01,4.68,10.93,4.91,16.92.12,3.12-.16,6.23-.07,9.35.01.22.04.46.09.68.94-4.62,1.65-8.43,1.92-10.9.77-6.94.77-17.97.53-32.21-.1,0-.22,0-.34.02Z" fill="#f2a181"/><g><path d="M93.5402,314.54l-16.18-13.65c0,0-7.53,10.21-4.69,20.06c1.4,4.84,3.15,7.25,3.91,9.55.71,2.15,5.58,32.54,5.22,34.77-.36,2.22-2.98,8.44-3.98,14.98-1.1,7.19-1.02,29.22-1.71,38.13h-.01c0,0-.55,6.65-1.34,8.1-.78,1.45-1.89,3.07-2.08,5.04-.11,1.14.52,2.35,1.83,3.02s2.19-.03,2.66.03c2.74.33,3.23,2.41,7.93,3.19c1.45.24,3.67-.25,4.94-1.25.5-.39.48-1.02.2-1.46-.28-.43-3.75-1.62-5.31-2.63-1.49-.96-2.95-3.6-3.36-4.5-.1-.23-.08-.89.01-1.72.21-1.42.45-2.9.71-4.43.21-1.09.38-1.88.38-1.88l-.05-.01c3.43-19.36,9.81-44.94,10.79-53.76c1.08-9.85.64-27.84.13-51.58Z" fill="#ffccb3"/></g><g><path d="M90.4001,436.83c.34-.59.43-1.47.11-1.69-.44-.3-2.02-1.34-2.93-1.76s-2.36-.79-1.85-.51-.43,1.31-1.28,1.25c-2.95-.18-5.12-2.14-6.8-2.56-2.42-.61-3.44-3.47-3.55-3.93-.46.29-1.52,2.6-1.74,3.32-.19.66-.55,1.85-.36,2.53.13.47.41,1.42.27,2.42c0,0,.48.37,1.74.63.8.17,1.88.03,1.88.03l.21-1.52c0,0,.66-.02,1.5.15s2.21.97,2.29,1.07c.34.4.61,1.14,1.05,1.36c1.18.59,2.37.88,3.87.97c3.16.16,5-.76,5.59-1.76Z" fill="#5661ae"/></g><g><path d="M115.63,436.53c-.35-.38-4.1-.99-5.85-1.73-1.67-.7-3.7-2.95-4.1-3.91-.4-.95-.3-5.79-.25-7.82.35-13.99,2.94-48.18,3.31-56.36.65-14.23-1.2-28.92-6.67-51.76L81.6799,299.3c0,0-5.71,10.61-3.8,20.76c1.11,5.89,5.99,6.79,6.82,9.08s13.16,39.18,13.16,39.18-2.4,7.98-2.54,16.72c-.12,7.46,3.26,29.96,3.89,38.53.07,1.67.36,5.69-.13,6.96-.6,1.56-2.15,3.4-2.07,5.37.04,1.15.87,2.23,2.32,2.68c1.4401.45,2.2501-.39,2.7501-.41c2.87-.12,3.67,1.86,8.63,1.85c1.53,0,3.75-.84,4.93-2.05.44-.43.34-1.05-.01-1.44Z" fill="#ffccb3"/></g><g><path d="M116.06,438.29c.27-.64.23-1.53-.12-1.69-.5-.22-2.27-1-3.27-1.26-1-.27-2.54-.4-1.98-.21s-.26,1.36-1.15,1.45c-3.07.3-5.59-1.28-7.38-1.42-2.59-.2-3.54-2.86-3.71-3.31-.43.36-1.71,2.81-1.83,3.57-.11.68-.3,1.92-.01,2.56.2.44.63,1.34.62,2.34c0,0,.55.28,1.89.34.85.03,1.94-.28,1.94-.28v-1.54c0,0,.68-.13,1.57-.1s1.99.49,2.53.89c.42.32.86.85,1.36.98c1.44.36,2.47.46,4.03.3c3.27-.33,5.04-1.54,5.51-2.62Z" fill="#5661ae"/></g><g><path d="M77.79,299.17c-1.38,1.52-6.31,9.74-6.37,16.42-.05,6.69,2.33,10.98,2.54,12.37c1.56,10.22,3.08,22.54,3.08,23.21s5.8,4.54,13.6,4.05c14.41-.91,20.01-4.68,20.01-4.68s-.68-24.75-2.9-36.95c-1.11-6.11-5.96-15.96-5.96-15.96" fill="#1f2d49"/></g><g><path d="M64.6401,272.45c0,0,2.32,11.53,2.93,13.58s3.62,15.08,6.47,14.85s18.48-13.27,18.48-13.27l-2.21-4.43-13.76,6.56c0,0-1.24-14.89-2.33-18.44" fill="#ffccb3"/></g><path d="M68.7399,265.74c0,0-.5,9.63,1.24,14.49c1.72-.03,3.23-.43,3.23-.43l-4.47-14.06Z" fill="#b03d44"/><g><path d="M95.7599,226.24c2.75,3.56,2.21,8.58,1.53,13.03-.34,2.25-.69,4.5-1.03,6.75-.16,1.07-.38,2.24-1.21,2.93-.84.69-2.04.68-3.13.64.01,1.86.02,3.72.03,5.59-3.19.07-6.37.09-9.56.04c0-1.31-.29-2.61-.82-3.79-1.56-.03-2.6-1.59-3.21-3.03-.7-1.65-1.22-3.38-1.71-5.11-.66-2.29-1.29-4.62-1.35-7.01s.51-4.87,2.02-6.71c1.03-1.26,2.44-2.15,3.88-2.9c1.98-1.03,4.35-1.84,6.39-.94" fill="#ffccb3"/></g><path d="M92.9901,234.41c.25.39.19.92.43,1.32.4.68.92.92,1.63,1.25c1.14.53.88,2.2.84,2.94.86-.57,1-2.14,1.21-2.93.23-.89.38-1.81.65-2.69.25-.86.69-1.67.77-2.58.28-3.13-1.68-6.81-4.06-8.56-1.73-1.28-4.36-1.23-6.31.07-.82.55-1.44,1.37-1.8,2.29-.16.39-.26.85-.07,1.23"/><path d="M77.6499,256.51c.16-1.09.46-2.36,1.47-2.79.28-.12.59-.16.9-.19c3.11-.34,6.24-.49,9.36-.44c1.29.02,2.63.09,3.79.66c1.81.91,2.81,2.86,3.69,4.69" fill="url(#ev7p1G9zNZH80-fill)"/><path d="M102.9,277.42c0,1.02-.57,2.39-.75,2.92-.71.37-3.5301.97-5.1501.23-.36-3.37-2.33-9.85-2.33-9.85s8.2301,5.76,8.2301,6.7Z" fill="#b03d44"/><g id="ev7p1G9zNZH82"><g><path d="M99.28,275.07c0,0,9.34,22.56,13.39,22.56c2.95,0,10.17-20.83,10.17-20.83l-4.57-2.16-5.09,8.72-5.15-16.27" fill="#ffccb3"/></g><path d="M117.37,276.19c0,0,1.51-2.38,1.4-4.07-.04-.64-.43-3.71-.11-4.31s1.09-2.58,1.53-2.96s2.06-1,2.46-.73.89-.99,1.55-.88s1.2.66,1.2,1.26.88.71.99,1.15.06.82.22,1.15.65.17.82.99c.16.75-.05.82,0,1.21.05.38.38.35.27,1.08s-.61,1.68-1.05,2.5-1.34,1.85-2.55,2.58c-.59.36-.92.99-1.49,2.05" fill="#ffccb3"/><path d="M119.88,258.76c-.12-.18-.43-.48-.81-.22-.37.26-.26.71-.18.9.08.18,2.76,6.25,2.76,6.25s.22.26.65-.12c.46-.41.32-.61.32-.61s-2.63-6.02-2.74-6.2Z"/><path d="M122.78,264.55c-.53.94-1.14,1.24-1.68,1.75-.43.4-.38.66-.85,1.08.83-.06.69-.55,1.76-1.33.5-.36,1.01-.75,1.11-1.36.04-.2-.21-.32-.34-.14Z"/></g><g><path d="M102.91,279.18c3.01-.55,5.34-2.64,7.73-5.08-1.33-3.67-3.22-12.7-6.51-16.15-3.4-3.55-9.13-3.11-12.2-3.01-3.18-.14-5.8.24-9.6.41-2.53.11-5.05.41-7.53.95-.28.06-.56.13-.84.2v-.03c0,0-4.56.49-6.88,2.26-5.9,4.51-1.33,20.9-1.33,20.9s-.29.87,3.67.65c.67-.04,1.32-.1,1.94-.18c2.06,4.83,7.24,14.79,5.73,16.92-.39.55-1.38,1.61-1.5,2.3-.44,2.53,5.29,3.43,7.74,3.63c3.73.31,8.02.1,11.76-.07c2.84-.13,9.04-1.12,9.48-4.63.09-.69-.25-1.24-.59-1.74-.44-.64-1.44-1.41-1.8-2.12-.86-1.7-1.62-8.85-1.32-10.67.23-1.46,1.23-2.41,2.05-4.54Z" fill="#5661ae"/></g><g><path d="M92.4701,243.22c-.38-1.87-.35-2.93.26-4.18.2-.41.47-.8.84-1.06.5-.35,1.15-.42,1.7-.18.36.16.65.45.86.8.65-2.51.79-5.19.6-7.8-.3-4.14-2.79-7.34-6.44-8.84-6.75-2.77-16.44-.03-19.18,6.59-2.07,5-1.02,12.22,2.94,16.42c3.51,3.71,8.55,4.26,13.21,3.49c2.38-.39,6.06-.16,7.29-3.4.1-.25-.12-.5-.37-.48-.97.08-1.64-1.01-1.71-1.36Z"/></g><g><path d="M79.31,246.14c-1.94-.55-4.04.54-5.34,2.1-1.5,1.79-2.14,4.58-.75,6.44.52.7,1.27,1.19,2.03,1.62c2.32,1.29,5.06,2.05,7.64,1.42c2.57-.63,4.83-2.94,4.8-5.59-.03-2.4-1.78-4.4-3.55-6.02"/></g><path d="M670.81,442.12c0,5.87-23.84,10.63-53.24,10.63s-53.24-4.76-53.24-10.63s23.83-10.63,53.24-10.63s53.24,4.76,53.24,10.63Z" opacity="0.5" fill="#000640"/><g><path d="M600.05,264.45l7.06,31.01c.19.84-.38,1.67-1.24,1.8l-21.98,3.16c-.76.11-1.49-.39-1.66-1.14l-7.06-31.01c-.19-.85.38-1.68,1.24-1.8l21.98-3.15c.77-.12,1.49.38,1.66,1.13Z"/></g><path d="M598.68,265.45l6.76,29.7-21.83,3.13-6.76-29.7l21.83-3.13Z" fill="url(#ev7p1G9zNZH97-fill)"/><path d="M579.16,270.77l18.55-2.66" fill="none" stroke="#a1d2f0" stroke-width="1.436" stroke-linecap="round" stroke-linejoin="round"/><path d="M579.79,273.58l18.54-2.66" fill="none" stroke="#a1d2f0" stroke-width="1.436" stroke-linecap="round" stroke-linejoin="round"/><path d="M587.51,275.91l11.59-1.67" fill="none" stroke="#a1d2f0" stroke-width="1.436" stroke-linecap="round" stroke-linejoin="round"/><path d="M588.33,278.32l11.59-1.67" fill="none" stroke="#a1d2f0" stroke-width="1.436" stroke-linecap="round" stroke-linejoin="round"/><path d="M589.16,280.73l11.59-1.66" fill="none" stroke="#a1d2f0" stroke-width="1.436" stroke-linecap="round" stroke-linejoin="round"/><path d="M584.91,294.06l11.59-1.66" fill="none" stroke="#a1d2f0" stroke-width="1.436" stroke-linecap="round" stroke-linejoin="round"/><path d="M608.51,295.84c-1.24-.59-2.17-1.67-3.05-2.73-.87-1.04-1.75-2.08-2.62-3.12-.35-.41-.71-.86-.75-1.39c1.47-.12,2.41,1.78,3.87,1.89-.68-2.41-1.66-4.74-2.91-6.91-.3-.53-.63-1.15-.42-1.72c1.58.6,2.92,1.73,4.07,2.97.81.87,1.55,1.81,2.2,2.8c1.93,2.92,3.13,6.28,3.95,9.69" fill="#ffccb3"/><path d="M614.76,339.59l6.82,15.66c-2.88,4.86-4.54,10.6-4.76,16.41-.11,3.02.15,6.05.07,9.07-.01.21-.04.44-.09.66-.91-4.48-1.6-8.17-1.86-10.58-.75-6.73-.75-17.43-.51-31.24.11.01.22.01.33.02Z" fill="#f2a181"/><g><path d="M614.81,320.82l15.69-13.24c0,0,7.3,9.9,4.55,19.46-1.35,4.7-3.05,7.03-3.79,9.26-.69,2.08-5.41,31.57-5.06,33.72.35,2.16,2.89,8.19,3.86,14.53c1.07,6.97.99,28.34,1.66,36.99h.01c0,0,.54,6.45,1.3,7.85.76,1.41,1.83,2.98,2.02,4.88.11,1.1-.51,2.28-1.78,2.93s-2.12-.03-2.58.03c-2.66.32-3.13,2.34-7.69,3.09-1.41.23-3.56-.24-4.8-1.22-.48-.38-.46-.99-.19-1.41s3.63-1.58,5.15-2.55c1.45-.93,2.86-3.49,3.26-4.37.1-.23.08-.86-.01-1.67-.21-1.38-.44-2.82-.69-4.29-.2-1.06-.36-1.83-.36-1.83l.05-.01c-3.32-18.77-9.51-43.59-10.46-52.15-1.07-9.53-.64-26.97-.14-50Z" fill="#ffccb3"/></g><path d="M617.85,439.43c-.33-.57-.42-1.43-.11-1.64.43-.29,1.96-1.3,2.84-1.71s2.29-.77,1.79-.5c-.49.27.42,1.27,1.24,1.21c2.86-.17,4.97-2.08,6.6-2.48c2.35-.59,3.34-3.36,3.44-3.81.45.28,1.48,2.52,1.69,3.22.19.64.53,1.8.35,2.46-.12.46-.4,1.38-.26,2.34c0,0-.46.36-1.69.61-.78.16-1.82.02-1.82.02l-.2-1.48c0,0-.64-.02-1.45.14-.81.17-2.14.94-2.22,1.04-.33.39-.59,1.1-1.02,1.32-1.14.58-2.3.85-3.75.94-3.07.19-4.86-.7-5.43-1.68Z" fill="#5661ae"/><g><path d="M593.38,439.15c.34-.37,3.97-.96,5.68-1.68c1.62-.68,3.59-2.86,3.97-3.79s.29-5.62.25-7.59c-.34-13.57-2.85-46.73-3.21-54.67-.63-13.8,1.16-28.05,6.47-50.21l19.78-15.18c0,0,5.54,10.3,3.68,20.14-1.08,5.71-5.81,6.59-6.61,8.81s-12.76,38-12.76,38s2.33,7.74,2.46,16.21c.12,7.24-3.17,29.06-3.78,37.37-.07,1.63-.35,5.52.13,6.75.59,1.52,2.08,3.3,2.01,5.21-.04,1.11-.84,2.17-2.25,2.6-1.4.44-2.18-.38-2.66-.4-2.79-.12-3.56,1.8-8.37,1.8-1.48,0-3.64-.82-4.78-1.99-.45-.41-.35-1.01-.01-1.38Z" fill="#ffccb3"/></g><path d="M592.97,440.85c-.26-.62-.23-1.48.12-1.64.48-.22,2.2-.97,3.17-1.23s2.47-.38,1.92-.2c-.55.19.25,1.32,1.11,1.4c2.98.29,5.42-1.24,7.16-1.38c2.51-.2,3.43-2.78,3.6-3.21.42.35,1.66,2.73,1.77,3.46.11.66.29,1.86.01,2.49-.19.43-.61,1.3-.6,2.27c0,0-.53.28-1.83.33-.82.03-1.88-.27-1.88-.27v-1.49c0,0-.66-.13-1.52-.09-.87.03-1.93.47-2.45.87-.41.31-.84.83-1.32.95-1.39.35-2.39.45-3.91.3-3.18-.34-4.9-1.51-5.35-2.56Z" fill="#5661ae"/><g><path d="M630.09,305.91c1.34,1.47,6.12,9.44,6.17,15.93s-2.26,10.65-2.46,12c-1.52,9.91,4.82,59.8,4.82,60.45s-8.07,7.18-15.6,8.04c-16.54,1.89-32.14-5.2-32.14-5.2s2.84-38.28,10.15-77.23c1.11-5.92,5.78-15.48,5.78-15.48" fill="#1f2d49"/></g><g><path d="M642.84,279.99c0,0-2.25,11.18-2.84,13.17s-3.51,14.63-6.28,14.41-17.93-12.88-17.93-12.88l2.15-4.29l13.35,6.36c0,0,1.21-14.45,2.26-17.89" fill="#ffccb3"/></g><path d="M638.86,273.49c0,0,.49,9.34-1.21,14.06-1.67-.03-3.13-.41-3.13-.41l4.34-13.65Z" fill="#b03d44"/><g><path d="M612.65,235.17c-2.67,3.46-2.14,8.32-1.48,12.64.33,2.18.66,4.37,1,6.55.16,1.04.37,2.17,1.18,2.84s1.98.66,3.03.62c-.01,1.81-.02,3.61-.03,5.42c3.09.07,6.18.09,9.27.04c0-1.27.28-2.53.8-3.68c1.51-.03,2.52-1.54,3.11-2.94.68-1.6,1.18-3.28,1.66-4.96.64-2.22,1.25-4.49,1.31-6.8s-.49-4.72-1.96-6.51c-1-1.22-2.37-2.08-3.77-2.81-1.92-1-4.22-1.79-6.2-.92" fill="#ffccb3"/></g><path d="M615.34,243.1c-.24.38-.19.89-.41,1.28-.38.66-.89.89-1.58,1.21-1.11.52-.85,2.13-.82,2.86-.84-.56-.97-2.07-1.17-2.85-.23-.86-.37-1.75-.63-2.61-.24-.84-.67-1.62-.75-2.5-.27-3.04,1.63-6.6,3.93-8.31c1.67-1.24,4.23-1.19,6.12.07.8.53,1.4,1.33,1.75,2.22.15.38.26.83.07,1.19"/><path d="M630.22,264.53c-.16-1.06-.44-2.29-1.43-2.71-.27-.12-.57-.15-.87-.18-3.02-.33-6.05-.48-9.08-.43-1.25.02-2.55.08-3.67.64-1.76.88-2.73,2.78-3.58,4.55" fill="url(#ev7p1G9zNZH120-fill)"/><path d="M605.73,284.81c0,.99.55,2.31.73,2.84.69.35,3.43.94,5,.23.34-3.27,2.26-9.56,2.26-9.56s-7.99,5.58-7.99,6.49Z" fill="#b03d44"/><g id="ev7p1G9zNZH122" transform="translate(.000001 0.000001)"><g><path d="M609.24,281.53c0,0-9.06,21.88-12.98,21.88-2.86,0-9.87-20.2-9.87-20.2l4.43-2.1l4.94,8.46l5-15.78" fill="#ffccb3"/></g><path d="M591.69,282.63c0,0-1.47-2.31-1.36-3.95.04-.63.41-3.6.1-4.18s-1.05-2.5-1.48-2.87-2-.97-2.38-.7-.86-.96-1.5-.85-1.17.64-1.17,1.22-.85.69-.96,1.12-.06.8-.21,1.12c-.16.32-.63.16-.8.96-.15.73.05.8,0,1.17s-.37.34-.27,1.05c.11.71.59,1.63,1.02,2.43s1.3,1.79,2.47,2.5c.58.35.89.96,1.44,1.99" fill="#ffccb3"/><path d="M589.26,265.72c.11-.17.42-.46.78-.21s.25.69.17.87-2.68,6.06-2.68,6.06-.22.25-.63-.12c-.45-.39-.31-.59-.31-.59s2.56-5.84,2.67-6.01Z" fill="#fff"/><path d="M586.44,271.33c.51.91,1.1,1.2,1.63,1.7.42.39.36.64.82,1.05-.81-.06-.67-.54-1.71-1.29-.48-.35-.98-.73-1.08-1.32-.03-.2.22-.31.34-.14Z"/></g><path d="M605.71,286.52c-2.92-.54-5.18-2.56-7.5-4.93c1.29-3.55,3.12-12.32,6.31-15.66c3.29-3.44,8.85-3.02,11.83-2.92c3.08-.14,5.62.23,9.31.4c2.45.11,4.9.39,7.31.92.28.06.55.12.81.19l.01-.03c0,0,4.43.47,6.67,2.19c5.72,4.38,1.29,20.27,1.29,20.27s.28.85-3.56.63c-.65-.04-1.28-.1-1.88-.18-2,4.69-7.03,14.34-5.56,16.41.38.54,1.34,1.56,1.45,2.23.42,2.46-5.13,3.32-7.51,3.52-3.62.3-7.78.1-11.41-.07-2.75-.13-8.76-1.09-9.19-4.49-.08-.67.25-1.2.58-1.69.42-.62,1.39-1.37,1.74-2.05.84-1.65,1.57-8.58,1.28-10.35-.21-1.4-1.18-2.32-1.98-4.39Z" fill="#5661ae"/><path d="M615.85,251.64c.36-1.82.34-2.84-.26-4.05-.2-.4-.46-.78-.81-1.03-.48-.34-1.12-.4-1.65-.17-.35.15-.63.43-.83.77-.63-2.44-.76-5.04-.58-7.57.29-4.02,2.71-7.12,6.25-8.58c6.55-2.69,15.95-.03,18.61,6.39c2.01,4.85.99,11.86-2.85,15.92-3.4,3.6-8.3,4.13-12.81,3.39-2.31-.38-5.88-.15-7.07-3.29-.09-.24.12-.49.36-.47.92.09,1.57-.97,1.64-1.31Z"/><path d="M628.61,254.48c1.89-.53,3.92.53,5.18,2.03c1.45,1.74,2.08,4.44.72,6.25-.51.68-1.23,1.16-1.97,1.57-2.25,1.25-4.91,1.99-7.41,1.37-2.5-.61-4.69-2.85-4.66-5.42.03-2.33,1.73-4.27,3.44-5.84"/><g><path d="M614.78,246.56c0,0,1.92.02-.59,6.4s-2.75,18.43-2.75,18.43s6.85,2.84,16.07,2.6s10.16-.24,10.4-.95s5.91-35.21-6.62-41.12"/></g><path d="M556.91,499.72c30.166,0,54.62-3.595,54.62-8.03s-24.454-8.03-54.62-8.03-54.62,3.595-54.62,8.03s24.454,8.03,54.62,8.03Z" opacity="0.5" fill="#000640"/><path d="M494.25,381.2h51.84l-2.24-4.97h-51.65l2.05,4.97Z"/><path d="M592.58,491.91h-6.14l-76.6-194.13h6.72l76.02,194.13Z"/><path d="M483.24,353.33h51.84l-2.24-4.97h-51.65l2.05,4.97Z"/><path d="M472.13,325.07h51.84l-2.24-4.98h-51.65l2.05,4.98Z"/><path d="M537.32,491.91h-6.14l-76.6-194.13h6.73l76.01,194.13Z"/><path d="M526.99,465.6h51.85l-2.24-4.97h-51.65l2.04,4.97Z"/><path d="M516.08,437.33h51.84l-2.24-4.97h-51.65l2.05,4.97Z"/><path d="M505.06,409.66h51.85l-2.24-4.97h-51.65l2.04,4.97Z"/><path d="M523.36,193.37l-1.9-3.95c0,0-3.66,1.17-6.58,1.32s-4.09.73-4.09.73l-2.34,3.8c0,0,9.06,1.75,14.91-1.9Z" fill="#5661ae"/><g><path d="M523.36,193.37c0,0,4.82-.44,7.31,1.02s5.12,10.67,5.99,16.96c.88,6.29,2.34,30.7,2.49,35.67s0,16.23,0,16.23-13.16,2.78-22.22,2.49-16.23-7.46-16.23-7.46.73-10.38,1.9-13.74s3.07-9.5,1.9-14.62-4.68-19.88-3.8-25.44s0-6.58,3.07-7.6s4.68-1.61,4.68-1.61s7.75,1.75,14.91-1.9Z" fill="#5661ae"/></g><g id="ev7p1G9zNZH145" transform="translate(.202525-1.06)"><g><path d="M511.08,205.6c0,0-.78,6.14-5.46,13.16s-10.52,13.94-12.47,15.01-6.04.88-8.28-.88c-2.24-1.75-17.74-19.69-17.74-19.69s-.1-2.14,1.66-4c1.75-1.85,3.51-1.85,3.51-1.85l14.91,12.57c0,0,9.45-15.98,11.79-18.81s4.68-3.51,6.53-3.22c1.85.3,5.75,3.61,5.55,7.71Z" fill="#5661ae"/></g><g><path d="M471.22,207.45c0,0-3.22-3.41-4.97-4.39-1.75-.97-7.41-2.14-8.19-2.05-.78.1-.8.63.17,1.12s3.14,1.12,3.14,1.12-2.73,1.66-2.73,2.83s1.75,3.41,2.83,3.41c1.07,0,2.63-.29,2.63-.29l3.22,2.44c0,0,.68-3.02,3.9-4.19Z" fill="#bc775c"/></g></g><g><path d="M531.25,194.83c-.15-.16,13.96,12.06,17.83,17.62s7.16,13.67,6.65,15.86-4.46,6.29-7.09,8.48-9.58,6.87-9.58,6.87l-.58-13.89c0,0,4.75-4.39,4.31-4.97s-5.26-5.41-5.26-5.41-.66-9.5-2.19-14.76c-1.53-5.27-2.7-8.34-4.09-9.8Z" fill="#5661ae"/></g><g><path d="M501.41,258.93c2.03,1.78,8.14,6.56,15.51,6.8c9.06.29,22.22-2.49,22.22-2.49s-1.61,10.67-2.92,14.91c-1.32,4.24-2.19,9.65-2.34,11.4s2.48,31.14,2.92,39.47-.68,35.33-.68,35.33h-8.19c0,0-2.97-32.55-5.6-50.53s-3.95-27.63-3.95-27.63l-1.9,3.22c0,0-.88,31.58-1.61,45.61s-2.29,29.48-2.29,29.48l-8.63.44c0,0-3.41-53.45-3.85-68.8-.4-14.48,1.14-34.93,1.31-37.21Z" fill="#1f2d49"/></g><g><path d="M535.64,364.45c0,0,1.27,7.11,1.27,8.09c0,.97-.39,4.29-.39,4.29s-5.95.2-10.04.1-8.87-1.07-8.87-1.07-.78-2.63.29-4.09s5.26-1.75,6.53-3.21s3.51-4.19,3.51-4.19s6.53.47,7.7.08Z" fill="#5661ae"/></g><g><path d="M511.96,364.45c0,0,1.27,7.11,1.27,8.09c0,.97-.39,4.29-.39,4.29s-5.94.2-10.04.1c-4.09-.1-8.87-1.07-8.87-1.07s-.78-2.63.29-4.09s5.26-1.75,6.53-3.21s3.51-4.19,3.51-4.19s6.53.47,7.7.08Z" fill="#5661ae"/></g><g><path d="M521.41,188.93c0,0,1.13-14.67-.1-18.52-1.46-4.58-4.39-7.8-8.97-7.99-4.58-.2-12.18.19-14.23,2.73-2.05,2.53-.98,6.24-.78,7.41s2.14,2.44,2.14,2.44s2.92-.78,3.8-.1s2.24,3.7,2.24,3.7.99-2.89,2.24-2.34c3.12,1.36,2.14,5.46,1.66,6.33-.62,1.12,0,.29,0,.29l6.92,7.5c.01.01,2.84.31,5.08-1.45Z"/></g><g><path d="M503.28,174.9c.88.68,2.24,3.7,2.24,3.7s.99-2.89,2.24-2.34c3.12,1.36,2.14,5.46,1.66,6.33-.62,1.12,0,.29,0,.29l6.92,7.5-5.55,1.07-.2-1.36c0,0-2.14.78-3.41.78s-2.73-2.63-4.39-5.46-3.31-10.43-3.31-10.43s2.93-.76,3.8-.08Z" fill="#bc775c"/></g><path d="M324.28,479.13c52.655,0,95.34-42.685,95.34-95.34s-42.685-95.34-95.34-95.34-95.34,42.685-95.34,95.34s42.685,95.34,95.34,95.34Z" fill="#2651f0"/><path d="M324.28,288.46v95.34l82.31-48.13c-16.55-28.25-47.21-47.21-82.31-47.21Z" fill="#e5383b"/><g><path d="M404.837,324.402L324,383.828l92.18,39.881c13.623-31.659,10.564-69.507-11.343-99.307Z" fill="#f2c30d"/></g></svg>
